<svg xmlns="http://www.w3.org/2000/svg">
<rect x="0" y="0" width="640" height="480" fill-opacity="0.20" stroke="black" stroke-width="2" />
<circle cx="295.75" cy="217.20000000000002" r="4" fill="yellow" stroke="red" stroke-width="2" />
<circle cx="296.8" cy="217.29999999999998" r="4" fill="yellow" stroke="red" stroke-width="2" />
<circle cx="297.90000000000003" cy="216.89999999999998" r="4" fill="yellow" stroke="red" stroke-width="2" />
<circle cx="304.15" cy="219.85" r="4" fill="yellow" stroke="red" stroke-width="2" />
<circle cx="305.59999999999997" cy="220" r="4" fill="yellow" stroke="red" stroke-width="2" />
<circle cx="306.65" cy="220.45000000000002" r="4" fill="yellow" stroke="red" stroke-width="2" />
<circle cx="307.55" cy="221" r="4" fill="yellow" stroke="red" stroke-width="2" />
<circle cx="308.55" cy="221.04999999999998" r="4" fill="yellow" stroke="red" stroke-width="2" />
<circle cx="310.25" cy="221.55" r="4" fill="yellow" stroke="red" stroke-width="2" />
<circle cx="311.7" cy="222.25" r="4" fill="yellow" stroke="red" stroke-width="2" />
<circle cx="312.65" cy="222.9" r="4" fill="yellow" stroke="red" stroke-width="2" />
<circle cx="326.45" cy="229.85" r="4" fill="yellow" stroke="red" stroke-width="2" />
<circle cx="338.75" cy="234.75" r="4" fill="yellow" stroke="red" stroke-width="2" />
<circle cx="339.25" cy="235.25" r="4" fill="yellow" stroke="red" stroke-width="2" />
<circle cx="341.25" cy="236.1" r="4" fill="yellow" stroke="red" stroke-width="2" />
<circle cx="342.1" cy="236.70000000000002" r="4" fill="yellow" stroke="red" stroke-width="2" />
<circle cx="345.79999999999995" cy="237.20000000000002" r="4" fill="yellow" stroke="red" stroke-width="2" />
<circle cx="347.5" cy="237.85000000000002" r="4" fill="yellow" stroke="red" stroke-width="2" />
<circle cx="350.4" cy="238.4" r="4" fill="yellow" stroke="red" stroke-width="2" />
<circle cx="352.40000000000003" cy="239.55" r="4" fill="yellow" stroke="red" stroke-width="2" />
<circle cx="354.84999999999997" cy="240.35" r="4" fill="yellow" stroke="red" stroke-width="2" />
<circle cx="551.6500000000001" cy="285.5" r="4" fill="yellow" stroke="red" stroke-width="2" />
<circle cx="266.97" cy="204.219" r="2" fill="green" stroke="black" stroke-width="1" />
<circle cx="284.02442499999995" cy="211.98364750000002" r="2" fill="green" stroke="black" stroke-width="1" />
<circle cx="301.21970000000005" cy="219.37739000000002" r="2" fill="green" stroke="black" stroke-width="1" />
<circle cx="318.555825" cy="226.4002275" r="2" fill="green" stroke="black" stroke-width="1" />
<circle cx="336.0328000000001" cy="233.05216000000001" r="2" fill="green" stroke="black" stroke-width="1" />
<circle cx="353.650625" cy="239.3331875" r="2" fill="green" stroke="black" stroke-width="1" />
<circle cx="371.4093" cy="245.24330999999998" r="2" fill="green" stroke="black" stroke-width="1" />
<circle cx="389.308825" cy="250.78252750000001" r="2" fill="green" stroke="black" stroke-width="1" />
<circle cx="407.34920000000005" cy="255.95083999999997" r="2" fill="green" stroke="black" stroke-width="1" />
<circle cx="425.53042500000004" cy="260.74824750000005" r="2" fill="green" stroke="black" stroke-width="1" />
<circle cx="443.8525000000001" cy="265.17475" r="2" fill="green" stroke="black" stroke-width="1" />
<circle cx="462.31542500000006" cy="269.23034750000005" r="2" fill="green" stroke="black" stroke-width="1" />
<circle cx="480.91920000000005" cy="272.91504000000003" r="2" fill="green" stroke="black" stroke-width="1" />
<circle cx="499.663825" cy="276.2288275" r="2" fill="green" stroke="black" stroke-width="1" />
<circle cx="518.5493" cy="279.17170999999996" r="2" fill="green" stroke="black" stroke-width="1" />
<circle cx="537.575625" cy="281.7436875000001" r="2" fill="green" stroke="black" stroke-width="1" />
<circle cx="556.7428" cy="283.94476000000003" r="2" fill="green" stroke="black" stroke-width="1" />
<circle cx="576.050825" cy="285.7749275" r="2" fill="green" stroke="black" stroke-width="1" />
<circle cx="595.4997000000001" cy="287.23419" r="2" fill="green" stroke="black" stroke-width="1" />
<circle cx="615.0894250000001" cy="288.32254750000004" r="2" fill="green" stroke="black" stroke-width="1" />
</svg>
