<svg xmlns="http://www.w3.org/2000/svg">
<rect x="0" y="0" width="640" height="480" fill-opacity="0.20" stroke="black" stroke-width="2" />
<circle cx="522" cy="271" r="4" fill="yellow" stroke="red" stroke-width="2" />
<circle cx="523.75" cy="270.85" r="4" fill="yellow" stroke="red" stroke-width="2" />
<circle cx="526.15" cy="271.2" r="4" fill="yellow" stroke="red" stroke-width="2" />
<circle cx="530.05" cy="272.05" r="4" fill="yellow" stroke="red" stroke-width="2" />
<circle cx="532.75" cy="273.25" r="4" fill="yellow" stroke="red" stroke-width="2" />
<circle cx="559.1" cy="276.7" r="4" fill="yellow" stroke="red" stroke-width="2" />
<circle cx="562.8000000000001" cy="276.95" r="4" fill="yellow" stroke="red" stroke-width="2" />
<circle cx="564.8" cy="278" r="4" fill="yellow" stroke="red" stroke-width="2" />
<circle cx="576.85" cy="278.54999999999995" r="4" fill="yellow" stroke="red" stroke-width="2" />
<circle cx="578.95" cy="279.84999999999997" r="4" fill="yellow" stroke="red" stroke-width="2" />
<circle cx="580.75" cy="279.79999999999995" r="4" fill="yellow" stroke="red" stroke-width="2" />
<circle cx="581.9" cy="280.15000000000003" r="4" fill="yellow" stroke="red" stroke-width="2" />
<circle cx="582.7" cy="280.25" r="4" fill="yellow" stroke="red" stroke-width="2" />
<circle cx="586.45" cy="280.34999999999997" r="4" fill="yellow" stroke="red" stroke-width="2" />
<circle cx="587.3" cy="280.3" r="4" fill="yellow" stroke="red" stroke-width="2" />
<circle cx="589.4" cy="280.2" r="4" fill="yellow" stroke="red" stroke-width="2" />
<circle cx="590.7" cy="280.95" r="4" fill="yellow" stroke="red" stroke-width="2" />
<circle cx="591.7" cy="281.45" r="4" fill="yellow" stroke="red" stroke-width="2" />
<circle cx="594.6999999999999" cy="281.2" r="4" fill="yellow" stroke="red" stroke-width="2" />
<circle cx="595.2" cy="280.9" r="4" fill="yellow" stroke="red" stroke-width="2" />
<circle cx="597.5" cy="281.15" r="4" fill="yellow" stroke="red" stroke-width="2" />
<circle cx="599.3000000000001" cy="282.3" r="4" fill="yellow" stroke="red" stroke-width="2" />
<circle cx="599.7" cy="281.95" r="4" fill="yellow" stroke="red" stroke-width="2" />
<circle cx="602" cy="282.2" r="4" fill="yellow" stroke="red" stroke-width="2" />
<circle cx="602.75" cy="282.2" r="4" fill="yellow" stroke="red" stroke-width="2" />
<circle cx="615.25" cy="283.6" r="4" fill="yellow" stroke="red" stroke-width="2" />
<circle cx="616.5999999999999" cy="283.84999999999997" r="4" fill="yellow" stroke="red" stroke-width="2" />
<circle cx="617.35" cy="283.84999999999997" r="4" fill="yellow" stroke="red" stroke-width="2" />
<circle cx="622.4" cy="284.15000000000003" r="4" fill="yellow" stroke="red" stroke-width="2" />
<circle cx="623.6999999999999" cy="284.84999999999997" r="4" fill="yellow" stroke="red" stroke-width="2" />
<circle cx="266.97" cy="204.219" r="2" fill="green" stroke="black" stroke-width="1" />
<circle cx="284.02442499999995" cy="211.98364750000002" r="2" fill="green" stroke="black" stroke-width="1" />
<circle cx="301.21970000000005" cy="219.37739000000002" r="2" fill="green" stroke="black" stroke-width="1" />
<circle cx="318.555825" cy="226.4002275" r="2" fill="green" stroke="black" stroke-width="1" />
<circle cx="336.0328000000001" cy="233.05216000000001" r="2" fill="green" stroke="black" stroke-width="1" />
<circle cx="353.650625" cy="239.3331875" r="2" fill="green" stroke="black" stroke-width="1" />
<circle cx="371.4093" cy="245.24330999999998" r="2" fill="green" stroke="black" stroke-width="1" />
<circle cx="389.308825" cy="250.78252750000001" r="2" fill="green" stroke="black" stroke-width="1" />
<circle cx="407.34920000000005" cy="255.95083999999997" r="2" fill="green" stroke="black" stroke-width="1" />
<circle cx="425.53042500000004" cy="260.74824750000005" r="2" fill="green" stroke="black" stroke-width="1" />
<circle cx="443.8525000000001" cy="265.17475" r="2" fill="green" stroke="black" stroke-width="1" />
<circle cx="462.31542500000006" cy="269.23034750000005" r="2" fill="green" stroke="black" stroke-width="1" />
<circle cx="480.91920000000005" cy="272.91504000000003" r="2" fill="green" stroke="black" stroke-width="1" />
<circle cx="499.663825" cy="276.2288275" r="2" fill="green" stroke="black" stroke-width="1" />
<circle cx="518.5493" cy="279.17170999999996" r="2" fill="green" stroke="black" stroke-width="1" />
<circle cx="537.575625" cy="281.7436875000001" r="2" fill="green" stroke="black" stroke-width="1" />
<circle cx="556.7428" cy="283.94476000000003" r="2" fill="green" stroke="black" stroke-width="1" />
<circle cx="576.050825" cy="285.7749275" r="2" fill="green" stroke="black" stroke-width="1" />
<circle cx="595.4997000000001" cy="287.23419" r="2" fill="green" stroke="black" stroke-width="1" />
<circle cx="615.0894250000001" cy="288.32254750000004" r="2" fill="green" stroke="black" stroke-width="1" />
</svg>
