<svg xmlns="http://www.w3.org/2000/svg">
<rect x="0" y="0" width="640" height="480" fill-opacity="0.20" stroke="black" stroke-width="2" />
<circle cx="601.85" cy="289.6" r="4" fill="yellow" stroke="red" stroke-width="2" />
<circle cx="599.05" cy="290" r="4" fill="yellow" stroke="red" stroke-width="2" />
<circle cx="582.65" cy="289.9" r="4" fill="yellow" stroke="red" stroke-width="2" />
<circle cx="580.65" cy="289.55" r="4" fill="yellow" stroke="red" stroke-width="2" />
<circle cx="578.6500000000001" cy="290.4" r="4" fill="yellow" stroke="red" stroke-width="2" />
<circle cx="576.6" cy="290.04999999999995" r="4" fill="yellow" stroke="red" stroke-width="2" />
<circle cx="566.25" cy="289.3" r="4" fill="yellow" stroke="red" stroke-width="2" />
<circle cx="563.6" cy="289.45" r="4" fill="yellow" stroke="red" stroke-width="2" />
<circle cx="561.75" cy="289.35" r="4" fill="yellow" stroke="red" stroke-width="2" />
<circle cx="557.5500000000001" cy="289.25" r="4" fill="yellow" stroke="red" stroke-width="2" />
<circle cx="555.65" cy="289.15000000000003" r="4" fill="yellow" stroke="red" stroke-width="2" />
<circle cx="553.1999999999999" cy="288.85" r="4" fill="yellow" stroke="red" stroke-width="2" />
<circle cx="550.75" cy="288.5" r="4" fill="yellow" stroke="red" stroke-width="2" />
<circle cx="537.4499999999999" cy="287.9" r="4" fill="yellow" stroke="red" stroke-width="2" />
<circle cx="535.45" cy="287.5" r="4" fill="yellow" stroke="red" stroke-width="2" />
<circle cx="530.8000000000001" cy="287.90000000000003" r="4" fill="yellow" stroke="red" stroke-width="2" />
<circle cx="526.15" cy="286.65" r="4" fill="yellow" stroke="red" stroke-width="2" />
<circle cx="518.55" cy="286.4" r="4" fill="yellow" stroke="red" stroke-width="2" />
<circle cx="39.099999999999994" cy="246.39999999999998" r="4" fill="yellow" stroke="red" stroke-width="2" />
<circle cx="20.3" cy="241.3" r="4" fill="yellow" stroke="red" stroke-width="2" />
<circle cx="20.22" cy="246.84" r="2" fill="green" stroke="black" stroke-width="1" />
<circle cx="57.8141" cy="250.23049999999995" r="2" fill="green" stroke="black" stroke-width="1" />
<circle cx="94.70040000000002" cy="253.502" r="2" fill="green" stroke="black" stroke-width="1" />
<circle cx="130.8789" cy="256.6545" r="2" fill="green" stroke="black" stroke-width="1" />
<circle cx="166.3496" cy="259.68800000000005" r="2" fill="green" stroke="black" stroke-width="1" />
<circle cx="201.11249999999998" cy="262.6025" r="2" fill="green" stroke="black" stroke-width="1" />
<circle cx="235.16759999999996" cy="265.39799999999997" r="2" fill="green" stroke="black" stroke-width="1" />
<circle cx="268.51489999999995" cy="268.0745" r="2" fill="green" stroke="black" stroke-width="1" />
<circle cx="301.1544" cy="270.632" r="2" fill="green" stroke="black" stroke-width="1" />
<circle cx="333.0861" cy="273.0705" r="2" fill="green" stroke="black" stroke-width="1" />
<circle cx="364.31" cy="275.39" r="2" fill="green" stroke="black" stroke-width="1" />
<circle cx="394.8261" cy="277.5905" r="2" fill="green" stroke="black" stroke-width="1" />
<circle cx="424.63439999999997" cy="279.672" r="2" fill="green" stroke="black" stroke-width="1" />
<circle cx="453.7349" cy="281.6345" r="2" fill="green" stroke="black" stroke-width="1" />
<circle cx="482.1275999999999" cy="283.47799999999995" r="2" fill="green" stroke="black" stroke-width="1" />
<circle cx="509.8125" cy="285.20250000000004" r="2" fill="green" stroke="black" stroke-width="1" />
<circle cx="536.7896000000001" cy="286.808" r="2" fill="green" stroke="black" stroke-width="1" />
<circle cx="563.0589" cy="288.29449999999997" r="2" fill="green" stroke="black" stroke-width="1" />
<circle cx="588.6204" cy="289.662" r="2" fill="green" stroke="black" stroke-width="1" />
<circle cx="613.4741" cy="290.91049999999996" r="2" fill="green" stroke="black" stroke-width="1" />
</svg>
