<svg xmlns="http://www.w3.org/2000/svg">
<rect x="0" y="0" width="640" height="480" fill-opacity="0.20" stroke="black" stroke-width="2" />
<circle cx="393.3" cy="280.25" r="4" fill="yellow" stroke="red" stroke-width="2" />
<circle cx="380.05" cy="272.15000000000003" r="4" fill="yellow" stroke="red" stroke-width="2" />
<circle cx="351.59999999999997" cy="253.5" r="4" fill="yellow" stroke="red" stroke-width="2" />
<circle cx="338.5" cy="246.15" r="4" fill="yellow" stroke="red" stroke-width="2" />
<circle cx="327.55" cy="240.20000000000002" r="4" fill="yellow" stroke="red" stroke-width="2" />
<circle cx="323.34999999999997" cy="237.3" r="4" fill="yellow" stroke="red" stroke-width="2" />
<circle cx="318.45" cy="234.9" r="4" fill="yellow" stroke="red" stroke-width="2" />
<circle cx="315.45" cy="232.9" r="4" fill="yellow" stroke="red" stroke-width="2" />
<circle cx="311.65000000000003" cy="231.35" r="4" fill="yellow" stroke="red" stroke-width="2" />
<circle cx="307.85" cy="229.25" r="4" fill="yellow" stroke="red" stroke-width="2" />
<circle cx="301.70000000000005" cy="225.4" r="4" fill="yellow" stroke="red" stroke-width="2" />
<circle cx="299.2" cy="224.75" r="4" fill="yellow" stroke="red" stroke-width="2" />
<circle cx="296.65000000000003" cy="223.29999999999998" r="4" fill="yellow" stroke="red" stroke-width="2" />
<circle cx="294.2" cy="222.04999999999998" r="4" fill="yellow" stroke="red" stroke-width="2" />
<circle cx="292.45" cy="220.14999999999998" r="4" fill="yellow" stroke="red" stroke-width="2" />
<circle cx="289.7" cy="219.20000000000002" r="4" fill="yellow" stroke="red" stroke-width="2" />
<circle cx="287.65000000000003" cy="218.45" r="4" fill="yellow" stroke="red" stroke-width="2" />
<circle cx="285.7" cy="218.3" r="4" fill="yellow" stroke="red" stroke-width="2" />
<circle cx="275.99" cy="212.94" r="2" fill="green" stroke="black" stroke-width="1" />
<circle cx="290.056725" cy="220.91694999999996" r="2" fill="green" stroke="black" stroke-width="1" />
<circle cx="304.1829" cy="229.0278" r="2" fill="green" stroke="black" stroke-width="1" />
<circle cx="318.368525" cy="237.27255" r="2" fill="green" stroke="black" stroke-width="1" />
<circle cx="332.6136000000001" cy="245.65120000000002" r="2" fill="green" stroke="black" stroke-width="1" />
<circle cx="346.918125" cy="254.16375" r="2" fill="green" stroke="black" stroke-width="1" />
<circle cx="361.28209999999996" cy="262.81019999999995" r="2" fill="green" stroke="black" stroke-width="1" />
<circle cx="375.70552499999997" cy="271.59055" r="2" fill="green" stroke="black" stroke-width="1" />
<circle cx="390.1884" cy="280.50480000000005" r="2" fill="green" stroke="black" stroke-width="1" />
<circle cx="404.73072500000006" cy="289.55295000000007" r="2" fill="green" stroke="black" stroke-width="1" />
<circle cx="419.3325" cy="298.735" r="2" fill="green" stroke="black" stroke-width="1" />
<circle cx="433.99372500000004" cy="308.05095000000006" r="2" fill="green" stroke="black" stroke-width="1" />
<circle cx="448.71439999999996" cy="317.5008" r="2" fill="green" stroke="black" stroke-width="1" />
<circle cx="463.494525" cy="327.08455000000004" r="2" fill="green" stroke="black" stroke-width="1" />
<circle cx="478.33410000000003" cy="336.8022" r="2" fill="green" stroke="black" stroke-width="1" />
<circle cx="493.233125" cy="346.65375" r="2" fill="green" stroke="black" stroke-width="1" />
<circle cx="508.1916" cy="356.6392" r="2" fill="green" stroke="black" stroke-width="1" />
<circle cx="523.209525" cy="366.75855" r="2" fill="green" stroke="black" stroke-width="1" />
<circle cx="538.2869000000001" cy="377.01180000000005" r="2" fill="green" stroke="black" stroke-width="1" />
<circle cx="553.423725" cy="387.39895" r="2" fill="green" stroke="black" stroke-width="1" />
</svg>
