<svg xmlns="http://www.w3.org/2000/svg">
<rect x="0" y="0" width="640" height="480" fill-opacity="0.20" stroke="black" stroke-width="2" />
<circle cx="301" cy="218.70000000000002" r="4" fill="yellow" stroke="red" stroke-width="2" />
<circle cx="303.15000000000003" cy="219.5" r="4" fill="yellow" stroke="red" stroke-width="2" />
<circle cx="305.90000000000003" cy="220.54999999999998" r="4" fill="yellow" stroke="red" stroke-width="2" />
<circle cx="308.05" cy="221.35" r="4" fill="yellow" stroke="red" stroke-width="2" />
<circle cx="312.09999999999997" cy="222.8" r="4" fill="yellow" stroke="red" stroke-width="2" />
<circle cx="352.20000000000005" cy="240.3" r="4" fill="yellow" stroke="red" stroke-width="2" />
<circle cx="362.3" cy="246.05" r="4" fill="yellow" stroke="red" stroke-width="2" />
<circle cx="380.55" cy="257.8" r="4" fill="yellow" stroke="red" stroke-width="2" />
<circle cx="387" cy="258.3" r="4" fill="yellow" stroke="red" stroke-width="2" />
<circle cx="468.75" cy="294" r="4" fill="yellow" stroke="red" stroke-width="2" />
<circle cx="493" cy="309.59999999999997" r="4" fill="yellow" stroke="red" stroke-width="2" />
<circle cx="588.7" cy="361.5" r="4" fill="yellow" stroke="red" stroke-width="2" />
<circle cx="615.3000000000001" cy="385.35" r="4" fill="yellow" stroke="red" stroke-width="2" />
<circle cx="469.8" cy="329.45" r="4" fill="yellow" stroke="red" stroke-width="2" />
<circle cx="444.5" cy="308.05" r="4" fill="yellow" stroke="red" stroke-width="2" />
<circle cx="422.25" cy="292.75" r="4" fill="yellow" stroke="red" stroke-width="2" />
<circle cx="344.3" cy="247.1" r="4" fill="yellow" stroke="red" stroke-width="2" />
<circle cx="338.29999999999995" cy="243.75" r="4" fill="yellow" stroke="red" stroke-width="2" />
<circle cx="333.35" cy="240.75" r="4" fill="yellow" stroke="red" stroke-width="2" />
<circle cx="328.65" cy="237.95" r="4" fill="yellow" stroke="red" stroke-width="2" />
<circle cx="324.5" cy="235.5" r="4" fill="yellow" stroke="red" stroke-width="2" />
<circle cx="320.25" cy="233.54999999999998" r="4" fill="yellow" stroke="red" stroke-width="2" />
<circle cx="316" cy="231.5" r="4" fill="yellow" stroke="red" stroke-width="2" />
<circle cx="312.85" cy="229.85000000000002" r="4" fill="yellow" stroke="red" stroke-width="2" />
<circle cx="309.35" cy="228.1" r="4" fill="yellow" stroke="red" stroke-width="2" />
<circle cx="306.20000000000005" cy="226.65" r="4" fill="yellow" stroke="red" stroke-width="2" />
<circle cx="303.6" cy="225.15" r="4" fill="yellow" stroke="red" stroke-width="2" />
<circle cx="301.5" cy="223.29999999999998" r="4" fill="yellow" stroke="red" stroke-width="2" />
<circle cx="298.75" cy="222.35" r="4" fill="yellow" stroke="red" stroke-width="2" />
<circle cx="296.7" cy="221.39999999999998" r="4" fill="yellow" stroke="red" stroke-width="2" />
<circle cx="294.29999999999995" cy="220" r="4" fill="yellow" stroke="red" stroke-width="2" />
<circle cx="292.15000000000003" cy="218.6" r="4" fill="yellow" stroke="red" stroke-width="2" />
<circle cx="289.35" cy="218.25" r="4" fill="yellow" stroke="red" stroke-width="2" />
<circle cx="288.05" cy="218.05" r="4" fill="yellow" stroke="red" stroke-width="2" />
<circle cx="286.09999999999997" cy="217.3" r="4" fill="yellow" stroke="red" stroke-width="2" />
<circle cx="292.45" cy="214.9" r="4" fill="yellow" stroke="red" stroke-width="2" />
<circle cx="294.5" cy="215.85000000000002" r="4" fill="yellow" stroke="red" stroke-width="2" />
<circle cx="296.65000000000003" cy="216.45000000000002" r="4" fill="yellow" stroke="red" stroke-width="2" />
<circle cx="298.1" cy="217.45" r="4" fill="yellow" stroke="red" stroke-width="2" />
<circle cx="300.7" cy="218.3" r="4" fill="yellow" stroke="red" stroke-width="2" />
<circle cx="302.5" cy="219.45" r="4" fill="yellow" stroke="red" stroke-width="2" />
<circle cx="305.40000000000003" cy="220.55" r="4" fill="yellow" stroke="red" stroke-width="2" />
<circle cx="307.9" cy="221.15" r="4" fill="yellow" stroke="red" stroke-width="2" />
<circle cx="310.4" cy="222" r="4" fill="yellow" stroke="red" stroke-width="2" />
<circle cx="313.05" cy="222.95" r="4" fill="yellow" stroke="red" stroke-width="2" />
<circle cx="316.3" cy="224.3" r="4" fill="yellow" stroke="red" stroke-width="2" />
<circle cx="318.85" cy="225.2" r="4" fill="yellow" stroke="red" stroke-width="2" />
<circle cx="322.25" cy="226.7" r="4" fill="yellow" stroke="red" stroke-width="2" />
<circle cx="325.6" cy="228.6" r="4" fill="yellow" stroke="red" stroke-width="2" />
<circle cx="328.7" cy="229.9" r="4" fill="yellow" stroke="red" stroke-width="2" />
<circle cx="332.65" cy="231.8" r="4" fill="yellow" stroke="red" stroke-width="2" />
<circle cx="336.7" cy="233.55" r="4" fill="yellow" stroke="red" stroke-width="2" />
<circle cx="341.45" cy="235.2" r="4" fill="yellow" stroke="red" stroke-width="2" />
<circle cx="345.15000000000003" cy="236.75" r="4" fill="yellow" stroke="red" stroke-width="2" />
<circle cx="351.34999999999997" cy="239.3" r="4" fill="yellow" stroke="red" stroke-width="2" />
<circle cx="356.15000000000003" cy="242" r="4" fill="yellow" stroke="red" stroke-width="2" />
<circle cx="361.65" cy="244.4" r="4" fill="yellow" stroke="red" stroke-width="2" />
<circle cx="368.95" cy="247.35" r="4" fill="yellow" stroke="red" stroke-width="2" />
<circle cx="376.15" cy="251.45" r="4" fill="yellow" stroke="red" stroke-width="2" />
<circle cx="384.65" cy="255.2" r="4" fill="yellow" stroke="red" stroke-width="2" />
<circle cx="393.5" cy="259.55" r="4" fill="yellow" stroke="red" stroke-width="2" />
<circle cx="405.8" cy="264.8" r="4" fill="yellow" stroke="red" stroke-width="2" />
<circle cx="419.15000000000003" cy="271.2" r="4" fill="yellow" stroke="red" stroke-width="2" />
<circle cx="434.2" cy="278.75" r="4" fill="yellow" stroke="red" stroke-width="2" />
<circle cx="453.04999999999995" cy="286.9" r="4" fill="yellow" stroke="red" stroke-width="2" />
<circle cx="275.99" cy="212.94" r="2" fill="green" stroke="black" stroke-width="1" />
<circle cx="290.056725" cy="220.91694999999996" r="2" fill="green" stroke="black" stroke-width="1" />
<circle cx="304.1829" cy="229.0278" r="2" fill="green" stroke="black" stroke-width="1" />
<circle cx="318.368525" cy="237.27255" r="2" fill="green" stroke="black" stroke-width="1" />
<circle cx="332.6136000000001" cy="245.65120000000002" r="2" fill="green" stroke="black" stroke-width="1" />
<circle cx="346.918125" cy="254.16375" r="2" fill="green" stroke="black" stroke-width="1" />
<circle cx="361.28209999999996" cy="262.81019999999995" r="2" fill="green" stroke="black" stroke-width="1" />
<circle cx="375.70552499999997" cy="271.59055" r="2" fill="green" stroke="black" stroke-width="1" />
<circle cx="390.1884" cy="280.50480000000005" r="2" fill="green" stroke="black" stroke-width="1" />
<circle cx="404.73072500000006" cy="289.55295000000007" r="2" fill="green" stroke="black" stroke-width="1" />
<circle cx="419.3325" cy="298.735" r="2" fill="green" stroke="black" stroke-width="1" />
<circle cx="433.99372500000004" cy="308.05095000000006" r="2" fill="green" stroke="black" stroke-width="1" />
<circle cx="448.71439999999996" cy="317.5008" r="2" fill="green" stroke="black" stroke-width="1" />
<circle cx="463.494525" cy="327.08455000000004" r="2" fill="green" stroke="black" stroke-width="1" />
<circle cx="478.33410000000003" cy="336.8022" r="2" fill="green" stroke="black" stroke-width="1" />
<circle cx="493.233125" cy="346.65375" r="2" fill="green" stroke="black" stroke-width="1" />
<circle cx="508.1916" cy="356.6392" r="2" fill="green" stroke="black" stroke-width="1" />
<circle cx="523.209525" cy="366.75855" r="2" fill="green" stroke="black" stroke-width="1" />
<circle cx="538.2869000000001" cy="377.01180000000005" r="2" fill="green" stroke="black" stroke-width="1" />
<circle cx="553.423725" cy="387.39895" r="2" fill="green" stroke="black" stroke-width="1" />
</svg>
