<svg xmlns="http://www.w3.org/2000/svg">
<rect x="0" y="0" width="640" height="480" fill-opacity="0.20" stroke="black" stroke-width="2" />
<circle cx="297.7" cy="217.5" r="4" fill="yellow" stroke="red" stroke-width="2" />
<circle cx="299.09999999999997" cy="218.15" r="4" fill="yellow" stroke="red" stroke-width="2" />
<circle cx="301.59999999999997" cy="219.25" r="4" fill="yellow" stroke="red" stroke-width="2" />
<circle cx="304.1" cy="219.65" r="4" fill="yellow" stroke="red" stroke-width="2" />
<circle cx="306.3" cy="221" r="4" fill="yellow" stroke="red" stroke-width="2" />
<circle cx="308.65" cy="221.6" r="4" fill="yellow" stroke="red" stroke-width="2" />
<circle cx="311.65000000000003" cy="222.4" r="4" fill="yellow" stroke="red" stroke-width="2" />
<circle cx="314.45000000000005" cy="224.55" r="4" fill="yellow" stroke="red" stroke-width="2" />
<circle cx="317.6" cy="225.35" r="4" fill="yellow" stroke="red" stroke-width="2" />
<circle cx="353.5" cy="241.8" r="4" fill="yellow" stroke="red" stroke-width="2" />
<circle cx="360.45" cy="244.75" r="4" fill="yellow" stroke="red" stroke-width="2" />
<circle cx="366.1" cy="247.65" r="4" fill="yellow" stroke="red" stroke-width="2" />
<circle cx="374.15000000000003" cy="251.05" r="4" fill="yellow" stroke="red" stroke-width="2" />
<circle cx="384.09999999999997" cy="255" r="4" fill="yellow" stroke="red" stroke-width="2" />
<circle cx="391.9" cy="260.8" r="4" fill="yellow" stroke="red" stroke-width="2" />
<circle cx="404.6" cy="265.75" r="4" fill="yellow" stroke="red" stroke-width="2" />
<circle cx="419.05" cy="271.75" r="4" fill="yellow" stroke="red" stroke-width="2" />
<circle cx="435.2" cy="282.29999999999995" r="4" fill="yellow" stroke="red" stroke-width="2" />
<circle cx="452.65" cy="289.7" r="4" fill="yellow" stroke="red" stroke-width="2" />
<circle cx="473.65000000000003" cy="300" r="4" fill="yellow" stroke="red" stroke-width="2" />
<circle cx="266.97" cy="204.219" r="2" fill="green" stroke="black" stroke-width="1" />
<circle cx="284.02442499999995" cy="211.98364750000002" r="2" fill="green" stroke="black" stroke-width="1" />
<circle cx="301.21970000000005" cy="219.37739000000002" r="2" fill="green" stroke="black" stroke-width="1" />
<circle cx="318.555825" cy="226.4002275" r="2" fill="green" stroke="black" stroke-width="1" />
<circle cx="336.0328000000001" cy="233.05216000000001" r="2" fill="green" stroke="black" stroke-width="1" />
<circle cx="353.650625" cy="239.3331875" r="2" fill="green" stroke="black" stroke-width="1" />
<circle cx="371.4093" cy="245.24330999999998" r="2" fill="green" stroke="black" stroke-width="1" />
<circle cx="389.308825" cy="250.78252750000001" r="2" fill="green" stroke="black" stroke-width="1" />
<circle cx="407.34920000000005" cy="255.95083999999997" r="2" fill="green" stroke="black" stroke-width="1" />
<circle cx="425.53042500000004" cy="260.74824750000005" r="2" fill="green" stroke="black" stroke-width="1" />
<circle cx="443.8525000000001" cy="265.17475" r="2" fill="green" stroke="black" stroke-width="1" />
<circle cx="462.31542500000006" cy="269.23034750000005" r="2" fill="green" stroke="black" stroke-width="1" />
<circle cx="480.91920000000005" cy="272.91504000000003" r="2" fill="green" stroke="black" stroke-width="1" />
<circle cx="499.663825" cy="276.2288275" r="2" fill="green" stroke="black" stroke-width="1" />
<circle cx="518.5493" cy="279.17170999999996" r="2" fill="green" stroke="black" stroke-width="1" />
<circle cx="537.575625" cy="281.7436875000001" r="2" fill="green" stroke="black" stroke-width="1" />
<circle cx="556.7428" cy="283.94476000000003" r="2" fill="green" stroke="black" stroke-width="1" />
<circle cx="576.050825" cy="285.7749275" r="2" fill="green" stroke="black" stroke-width="1" />
<circle cx="595.4997000000001" cy="287.23419" r="2" fill="green" stroke="black" stroke-width="1" />
<circle cx="615.0894250000001" cy="288.32254750000004" r="2" fill="green" stroke="black" stroke-width="1" />
</svg>
