<svg xmlns="http://www.w3.org/2000/svg">
<rect x="0" y="0" width="640" height="480" fill-opacity="0.20" stroke="black" stroke-width="2" />
<circle cx="291.3" cy="216.1" r="4" fill="yellow" stroke="red" stroke-width="2" />
<circle cx="293.45000000000005" cy="217.05" r="4" fill="yellow" stroke="red" stroke-width="2" />
<circle cx="312.35" cy="225.2" r="4" fill="yellow" stroke="red" stroke-width="2" />
<circle cx="337.9" cy="236.20000000000002" r="4" fill="yellow" stroke="red" stroke-width="2" />
<circle cx="341.90000000000003" cy="238.15" r="4" fill="yellow" stroke="red" stroke-width="2" />
<circle cx="348" cy="240.6" r="4" fill="yellow" stroke="red" stroke-width="2" />
<circle cx="360.25" cy="247" r="4" fill="yellow" stroke="red" stroke-width="2" />
<circle cx="396.34999999999997" cy="264" r="4" fill="yellow" stroke="red" stroke-width="2" />
<circle cx="409.75" cy="270.05" r="4" fill="yellow" stroke="red" stroke-width="2" />
<circle cx="424.7" cy="277.59999999999997" r="4" fill="yellow" stroke="red" stroke-width="2" />
<circle cx="441.7" cy="286.55" r="4" fill="yellow" stroke="red" stroke-width="2" />
<circle cx="463.05" cy="297.95000000000005" r="4" fill="yellow" stroke="red" stroke-width="2" />
<circle cx="493.5" cy="309.65" r="4" fill="yellow" stroke="red" stroke-width="2" />
<circle cx="555.25" cy="346.65000000000003" r="4" fill="yellow" stroke="red" stroke-width="2" />
<circle cx="592.6" cy="374" r="4" fill="yellow" stroke="red" stroke-width="2" />
<circle cx="275.99" cy="212.94" r="2" fill="green" stroke="black" stroke-width="1" />
<circle cx="290.056725" cy="220.91694999999996" r="2" fill="green" stroke="black" stroke-width="1" />
<circle cx="304.1829" cy="229.0278" r="2" fill="green" stroke="black" stroke-width="1" />
<circle cx="318.368525" cy="237.27255" r="2" fill="green" stroke="black" stroke-width="1" />
<circle cx="332.6136000000001" cy="245.65120000000002" r="2" fill="green" stroke="black" stroke-width="1" />
<circle cx="346.918125" cy="254.16375" r="2" fill="green" stroke="black" stroke-width="1" />
<circle cx="361.28209999999996" cy="262.81019999999995" r="2" fill="green" stroke="black" stroke-width="1" />
<circle cx="375.70552499999997" cy="271.59055" r="2" fill="green" stroke="black" stroke-width="1" />
<circle cx="390.1884" cy="280.50480000000005" r="2" fill="green" stroke="black" stroke-width="1" />
<circle cx="404.73072500000006" cy="289.55295000000007" r="2" fill="green" stroke="black" stroke-width="1" />
<circle cx="419.3325" cy="298.735" r="2" fill="green" stroke="black" stroke-width="1" />
<circle cx="433.99372500000004" cy="308.05095000000006" r="2" fill="green" stroke="black" stroke-width="1" />
<circle cx="448.71439999999996" cy="317.5008" r="2" fill="green" stroke="black" stroke-width="1" />
<circle cx="463.494525" cy="327.08455000000004" r="2" fill="green" stroke="black" stroke-width="1" />
<circle cx="478.33410000000003" cy="336.8022" r="2" fill="green" stroke="black" stroke-width="1" />
<circle cx="493.233125" cy="346.65375" r="2" fill="green" stroke="black" stroke-width="1" />
<circle cx="508.1916" cy="356.6392" r="2" fill="green" stroke="black" stroke-width="1" />
<circle cx="523.209525" cy="366.75855" r="2" fill="green" stroke="black" stroke-width="1" />
<circle cx="538.2869000000001" cy="377.01180000000005" r="2" fill="green" stroke="black" stroke-width="1" />
<circle cx="553.423725" cy="387.39895" r="2" fill="green" stroke="black" stroke-width="1" />
</svg>
