<svg xmlns="http://www.w3.org/2000/svg">
<rect x="0" y="0" width="640" height="480" fill-opacity="0.20" stroke="black" stroke-width="2" />
<circle cx="287.65" cy="213.89999999999998" r="4" fill="yellow" stroke="red" stroke-width="2" />
<circle cx="291.7" cy="215.29999999999998" r="4" fill="yellow" stroke="red" stroke-width="2" />
<circle cx="293.4" cy="215.64999999999998" r="4" fill="yellow" stroke="red" stroke-width="2" />
<circle cx="295.2" cy="216.5" r="4" fill="yellow" stroke="red" stroke-width="2" />
<circle cx="297.09999999999997" cy="216.75" r="4" fill="yellow" stroke="red" stroke-width="2" />
<circle cx="299.2" cy="217.85" r="4" fill="yellow" stroke="red" stroke-width="2" />
<circle cx="301.34999999999997" cy="218.95000000000002" r="4" fill="yellow" stroke="red" stroke-width="2" />
<circle cx="303.40000000000003" cy="219.6" r="4" fill="yellow" stroke="red" stroke-width="2" />
<circle cx="305.65000000000003" cy="220.70000000000002" r="4" fill="yellow" stroke="red" stroke-width="2" />
<circle cx="307.5" cy="221.65" r="4" fill="yellow" stroke="red" stroke-width="2" />
<circle cx="310.75" cy="222.5" r="4" fill="yellow" stroke="red" stroke-width="2" />
<circle cx="312.85" cy="223.2" r="4" fill="yellow" stroke="red" stroke-width="2" />
<circle cx="327.75" cy="230.35" r="4" fill="yellow" stroke="red" stroke-width="2" />
<circle cx="331.40000000000003" cy="231.95" r="4" fill="yellow" stroke="red" stroke-width="2" />
<circle cx="335.55" cy="233.3" r="4" fill="yellow" stroke="red" stroke-width="2" />
<circle cx="339.40000000000003" cy="235.65" r="4" fill="yellow" stroke="red" stroke-width="2" />
<circle cx="344.25" cy="237.35" r="4" fill="yellow" stroke="red" stroke-width="2" />
<circle cx="350" cy="239.79999999999998" r="4" fill="yellow" stroke="red" stroke-width="2" />
<circle cx="354.25" cy="242.4" r="4" fill="yellow" stroke="red" stroke-width="2" />
<circle cx="360.55" cy="244.4" r="4" fill="yellow" stroke="red" stroke-width="2" />
<circle cx="366.9" cy="247.35000000000002" r="4" fill="yellow" stroke="red" stroke-width="2" />
<circle cx="374.35" cy="252.14999999999998" r="4" fill="yellow" stroke="red" stroke-width="2" />
<circle cx="382.65000000000003" cy="255.3" r="4" fill="yellow" stroke="red" stroke-width="2" />
<circle cx="391.85" cy="259.59999999999997" r="4" fill="yellow" stroke="red" stroke-width="2" />
<circle cx="402.59999999999997" cy="264.4" r="4" fill="yellow" stroke="red" stroke-width="2" />
<circle cx="414.95" cy="270.4" r="4" fill="yellow" stroke="red" stroke-width="2" />
<circle cx="430.34999999999997" cy="277.7" r="4" fill="yellow" stroke="red" stroke-width="2" />
<circle cx="445.8" cy="285.90000000000003" r="4" fill="yellow" stroke="red" stroke-width="2" />
<circle cx="465.54999999999995" cy="294.84999999999997" r="4" fill="yellow" stroke="red" stroke-width="2" />
<circle cx="487.75" cy="309.95000000000005" r="4" fill="yellow" stroke="red" stroke-width="2" />
<circle cx="514.05" cy="323.3" r="4" fill="yellow" stroke="red" stroke-width="2" />
<circle cx="553.75" cy="342.45" r="4" fill="yellow" stroke="red" stroke-width="2" />
<circle cx="584.35" cy="363.05" r="4" fill="yellow" stroke="red" stroke-width="2" />
<circle cx="275.99" cy="212.94" r="2" fill="green" stroke="black" stroke-width="1" />
<circle cx="290.056725" cy="220.91694999999996" r="2" fill="green" stroke="black" stroke-width="1" />
<circle cx="304.1829" cy="229.0278" r="2" fill="green" stroke="black" stroke-width="1" />
<circle cx="318.368525" cy="237.27255" r="2" fill="green" stroke="black" stroke-width="1" />
<circle cx="332.6136000000001" cy="245.65120000000002" r="2" fill="green" stroke="black" stroke-width="1" />
<circle cx="346.918125" cy="254.16375" r="2" fill="green" stroke="black" stroke-width="1" />
<circle cx="361.28209999999996" cy="262.81019999999995" r="2" fill="green" stroke="black" stroke-width="1" />
<circle cx="375.70552499999997" cy="271.59055" r="2" fill="green" stroke="black" stroke-width="1" />
<circle cx="390.1884" cy="280.50480000000005" r="2" fill="green" stroke="black" stroke-width="1" />
<circle cx="404.73072500000006" cy="289.55295000000007" r="2" fill="green" stroke="black" stroke-width="1" />
<circle cx="419.3325" cy="298.735" r="2" fill="green" stroke="black" stroke-width="1" />
<circle cx="433.99372500000004" cy="308.05095000000006" r="2" fill="green" stroke="black" stroke-width="1" />
<circle cx="448.71439999999996" cy="317.5008" r="2" fill="green" stroke="black" stroke-width="1" />
<circle cx="463.494525" cy="327.08455000000004" r="2" fill="green" stroke="black" stroke-width="1" />
<circle cx="478.33410000000003" cy="336.8022" r="2" fill="green" stroke="black" stroke-width="1" />
<circle cx="493.233125" cy="346.65375" r="2" fill="green" stroke="black" stroke-width="1" />
<circle cx="508.1916" cy="356.6392" r="2" fill="green" stroke="black" stroke-width="1" />
<circle cx="523.209525" cy="366.75855" r="2" fill="green" stroke="black" stroke-width="1" />
<circle cx="538.2869000000001" cy="377.01180000000005" r="2" fill="green" stroke="black" stroke-width="1" />
<circle cx="553.423725" cy="387.39895" r="2" fill="green" stroke="black" stroke-width="1" />
</svg>
