<svg xmlns="http://www.w3.org/2000/svg">
<rect x="0" y="0" width="640" height="480" fill-opacity="0.20" stroke="black" stroke-width="2" />
<circle cx="299.5" cy="217.54999999999998" r="4" fill="yellow" stroke="red" stroke-width="2" />
<circle cx="301.5" cy="218" r="4" fill="yellow" stroke="red" stroke-width="2" />
<circle cx="304.45000000000005" cy="219.9" r="4" fill="yellow" stroke="red" stroke-width="2" />
<circle cx="306.85" cy="221.2" r="4" fill="yellow" stroke="red" stroke-width="2" />
<circle cx="308.65" cy="221.55" r="4" fill="yellow" stroke="red" stroke-width="2" />
<circle cx="311.7" cy="222.8" r="4" fill="yellow" stroke="red" stroke-width="2" />
<circle cx="315.15" cy="223.35" r="4" fill="yellow" stroke="red" stroke-width="2" />
<circle cx="318.75" cy="225.29999999999998" r="4" fill="yellow" stroke="red" stroke-width="2" />
<circle cx="321.79999999999995" cy="227.29999999999998" r="4" fill="yellow" stroke="red" stroke-width="2" />
<circle cx="326.29999999999995" cy="229.95" r="4" fill="yellow" stroke="red" stroke-width="2" />
<circle cx="329.95" cy="230.5" r="4" fill="yellow" stroke="red" stroke-width="2" />
<circle cx="335" cy="231.39999999999998" r="4" fill="yellow" stroke="red" stroke-width="2" />
<circle cx="339.15000000000003" cy="234.35000000000002" r="4" fill="yellow" stroke="red" stroke-width="2" />
<circle cx="345.4" cy="237.15" r="4" fill="yellow" stroke="red" stroke-width="2" />
<circle cx="351.34999999999997" cy="239.6" r="4" fill="yellow" stroke="red" stroke-width="2" />
<circle cx="357.55" cy="242.1" r="4" fill="yellow" stroke="red" stroke-width="2" />
<circle cx="364.3" cy="244.9" r="4" fill="yellow" stroke="red" stroke-width="2" />
<circle cx="372.4" cy="249.25" r="4" fill="yellow" stroke="red" stroke-width="2" />
<circle cx="381.45000000000005" cy="253.7" r="4" fill="yellow" stroke="red" stroke-width="2" />
<circle cx="390.84999999999997" cy="258.65" r="4" fill="yellow" stroke="red" stroke-width="2" />
<circle cx="405.5" cy="264.09999999999997" r="4" fill="yellow" stroke="red" stroke-width="2" />
<circle cx="419.75" cy="269.8" r="4" fill="yellow" stroke="red" stroke-width="2" />
<circle cx="438.29999999999995" cy="278.1" r="4" fill="yellow" stroke="red" stroke-width="2" />
<circle cx="458.65" cy="289.2" r="4" fill="yellow" stroke="red" stroke-width="2" />
<circle cx="481.7" cy="300.4" r="4" fill="yellow" stroke="red" stroke-width="2" />
<circle cx="509.90000000000003" cy="316.54999999999995" r="4" fill="yellow" stroke="red" stroke-width="2" />
<circle cx="266.97" cy="204.219" r="2" fill="green" stroke="black" stroke-width="1" />
<circle cx="284.02442499999995" cy="211.98364750000002" r="2" fill="green" stroke="black" stroke-width="1" />
<circle cx="301.21970000000005" cy="219.37739000000002" r="2" fill="green" stroke="black" stroke-width="1" />
<circle cx="318.555825" cy="226.4002275" r="2" fill="green" stroke="black" stroke-width="1" />
<circle cx="336.0328000000001" cy="233.05216000000001" r="2" fill="green" stroke="black" stroke-width="1" />
<circle cx="353.650625" cy="239.3331875" r="2" fill="green" stroke="black" stroke-width="1" />
<circle cx="371.4093" cy="245.24330999999998" r="2" fill="green" stroke="black" stroke-width="1" />
<circle cx="389.308825" cy="250.78252750000001" r="2" fill="green" stroke="black" stroke-width="1" />
<circle cx="407.34920000000005" cy="255.95083999999997" r="2" fill="green" stroke="black" stroke-width="1" />
<circle cx="425.53042500000004" cy="260.74824750000005" r="2" fill="green" stroke="black" stroke-width="1" />
<circle cx="443.8525000000001" cy="265.17475" r="2" fill="green" stroke="black" stroke-width="1" />
<circle cx="462.31542500000006" cy="269.23034750000005" r="2" fill="green" stroke="black" stroke-width="1" />
<circle cx="480.91920000000005" cy="272.91504000000003" r="2" fill="green" stroke="black" stroke-width="1" />
<circle cx="499.663825" cy="276.2288275" r="2" fill="green" stroke="black" stroke-width="1" />
<circle cx="518.5493" cy="279.17170999999996" r="2" fill="green" stroke="black" stroke-width="1" />
<circle cx="537.575625" cy="281.7436875000001" r="2" fill="green" stroke="black" stroke-width="1" />
<circle cx="556.7428" cy="283.94476000000003" r="2" fill="green" stroke="black" stroke-width="1" />
<circle cx="576.050825" cy="285.7749275" r="2" fill="green" stroke="black" stroke-width="1" />
<circle cx="595.4997000000001" cy="287.23419" r="2" fill="green" stroke="black" stroke-width="1" />
<circle cx="615.0894250000001" cy="288.32254750000004" r="2" fill="green" stroke="black" stroke-width="1" />
</svg>
