<svg xmlns="http://www.w3.org/2000/svg">
<rect x="0" y="0" width="640" height="480" fill-opacity="0.20" stroke="black" stroke-width="2" />
<circle cx="598.95" cy="290.5" r="4" fill="yellow" stroke="red" stroke-width="2" />
<circle cx="594.55" cy="289.90000000000003" r="4" fill="yellow" stroke="red" stroke-width="2" />
<circle cx="594.25" cy="290.05" r="4" fill="yellow" stroke="red" stroke-width="2" />
<circle cx="592.6999999999999" cy="290.8" r="4" fill="yellow" stroke="red" stroke-width="2" />
<circle cx="589.85" cy="290.5" r="4" fill="yellow" stroke="red" stroke-width="2" />
<circle cx="588.6999999999999" cy="290.70000000000005" r="4" fill="yellow" stroke="red" stroke-width="2" />
<circle cx="587.5" cy="290.84999999999997" r="4" fill="yellow" stroke="red" stroke-width="2" />
<circle cx="586" cy="290.70000000000005" r="4" fill="yellow" stroke="red" stroke-width="2" />
<circle cx="584.15" cy="289.84999999999997" r="4" fill="yellow" stroke="red" stroke-width="2" />
<circle cx="583.2" cy="290.3" r="4" fill="yellow" stroke="red" stroke-width="2" />
<circle cx="581.05" cy="290.65000000000003" r="4" fill="yellow" stroke="red" stroke-width="2" />
<circle cx="578.5" cy="289.95000000000005" r="4" fill="yellow" stroke="red" stroke-width="2" />
<circle cx="577.1" cy="290.5" r="4" fill="yellow" stroke="red" stroke-width="2" />
<circle cx="576.25" cy="290.7" r="4" fill="yellow" stroke="red" stroke-width="2" />
<circle cx="574.25" cy="290.2" r="4" fill="yellow" stroke="red" stroke-width="2" />
<circle cx="572.6999999999999" cy="290.2" r="4" fill="yellow" stroke="red" stroke-width="2" />
<circle cx="570.9" cy="290.6" r="4" fill="yellow" stroke="red" stroke-width="2" />
<circle cx="569.3" cy="290.65000000000003" r="4" fill="yellow" stroke="red" stroke-width="2" />
<circle cx="567.5" cy="290.45" r="4" fill="yellow" stroke="red" stroke-width="2" />
<circle cx="565.8" cy="290.84999999999997" r="4" fill="yellow" stroke="red" stroke-width="2" />
<circle cx="564.3" cy="290.7" r="4" fill="yellow" stroke="red" stroke-width="2" />
<circle cx="561.85" cy="289.85" r="4" fill="yellow" stroke="red" stroke-width="2" />
<circle cx="559.65" cy="289.85" r="4" fill="yellow" stroke="red" stroke-width="2" />
<circle cx="558.25" cy="290.15" r="4" fill="yellow" stroke="red" stroke-width="2" />
<circle cx="556.75" cy="290" r="4" fill="yellow" stroke="red" stroke-width="2" />
<circle cx="554.45" cy="289.85" r="4" fill="yellow" stroke="red" stroke-width="2" />
<circle cx="552.4" cy="289.9" r="4" fill="yellow" stroke="red" stroke-width="2" />
<circle cx="550.8499999999999" cy="289.75" r="4" fill="yellow" stroke="red" stroke-width="2" />
<circle cx="548.6999999999999" cy="290.15" r="4" fill="yellow" stroke="red" stroke-width="2" />
<circle cx="546.8499999999999" cy="289.84999999999997" r="4" fill="yellow" stroke="red" stroke-width="2" />
<circle cx="537.6999999999999" cy="290.04999999999995" r="4" fill="yellow" stroke="red" stroke-width="2" />
<circle cx="534.2" cy="288.95" r="4" fill="yellow" stroke="red" stroke-width="2" />
<circle cx="532.25" cy="288.95000000000005" r="4" fill="yellow" stroke="red" stroke-width="2" />
<circle cx="531.45" cy="289.55" r="4" fill="yellow" stroke="red" stroke-width="2" />
<circle cx="529.75" cy="289.55" r="4" fill="yellow" stroke="red" stroke-width="2" />
<circle cx="524.8" cy="288.90000000000003" r="4" fill="yellow" stroke="red" stroke-width="2" />
<circle cx="519.3" cy="288.45" r="4" fill="yellow" stroke="red" stroke-width="2" />
<circle cx="517.65" cy="287.65" r="4" fill="yellow" stroke="red" stroke-width="2" />
<circle cx="516.65" cy="288.1" r="4" fill="yellow" stroke="red" stroke-width="2" />
<circle cx="515.1" cy="287.7" r="4" fill="yellow" stroke="red" stroke-width="2" />
<circle cx="513.6" cy="287.9" r="4" fill="yellow" stroke="red" stroke-width="2" />
<circle cx="508.9" cy="287.2" r="4" fill="yellow" stroke="red" stroke-width="2" />
<circle cx="51.1" cy="250.95" r="4" fill="yellow" stroke="red" stroke-width="2" />
<circle cx="37.6" cy="249.65" r="4" fill="yellow" stroke="red" stroke-width="2" />
<circle cx="23.2" cy="247.8" r="4" fill="yellow" stroke="red" stroke-width="2" />
<circle cx="8.350000000000001" cy="238.45" r="4" fill="yellow" stroke="red" stroke-width="2" />
<circle cx="20.22" cy="246.84" r="2" fill="green" stroke="black" stroke-width="1" />
<circle cx="57.8141" cy="250.23049999999995" r="2" fill="green" stroke="black" stroke-width="1" />
<circle cx="94.70040000000002" cy="253.502" r="2" fill="green" stroke="black" stroke-width="1" />
<circle cx="130.8789" cy="256.6545" r="2" fill="green" stroke="black" stroke-width="1" />
<circle cx="166.3496" cy="259.68800000000005" r="2" fill="green" stroke="black" stroke-width="1" />
<circle cx="201.11249999999998" cy="262.6025" r="2" fill="green" stroke="black" stroke-width="1" />
<circle cx="235.16759999999996" cy="265.39799999999997" r="2" fill="green" stroke="black" stroke-width="1" />
<circle cx="268.51489999999995" cy="268.0745" r="2" fill="green" stroke="black" stroke-width="1" />
<circle cx="301.1544" cy="270.632" r="2" fill="green" stroke="black" stroke-width="1" />
<circle cx="333.0861" cy="273.0705" r="2" fill="green" stroke="black" stroke-width="1" />
<circle cx="364.31" cy="275.39" r="2" fill="green" stroke="black" stroke-width="1" />
<circle cx="394.8261" cy="277.5905" r="2" fill="green" stroke="black" stroke-width="1" />
<circle cx="424.63439999999997" cy="279.672" r="2" fill="green" stroke="black" stroke-width="1" />
<circle cx="453.7349" cy="281.6345" r="2" fill="green" stroke="black" stroke-width="1" />
<circle cx="482.1275999999999" cy="283.47799999999995" r="2" fill="green" stroke="black" stroke-width="1" />
<circle cx="509.8125" cy="285.20250000000004" r="2" fill="green" stroke="black" stroke-width="1" />
<circle cx="536.7896000000001" cy="286.808" r="2" fill="green" stroke="black" stroke-width="1" />
<circle cx="563.0589" cy="288.29449999999997" r="2" fill="green" stroke="black" stroke-width="1" />
<circle cx="588.6204" cy="289.662" r="2" fill="green" stroke="black" stroke-width="1" />
<circle cx="613.4741" cy="290.91049999999996" r="2" fill="green" stroke="black" stroke-width="1" />
</svg>
