<svg xmlns="http://www.w3.org/2000/svg">
<rect x="0" y="0" width="640" height="480" fill-opacity="0.20" stroke="black" stroke-width="2" />
<circle cx="293.25" cy="215.4" r="4" fill="yellow" stroke="red" stroke-width="2" />
<circle cx="295.8" cy="216.04999999999998" r="4" fill="yellow" stroke="red" stroke-width="2" />
<circle cx="297.95" cy="216.9" r="4" fill="yellow" stroke="red" stroke-width="2" />
<circle cx="299.70000000000005" cy="218.2" r="4" fill="yellow" stroke="red" stroke-width="2" />
<circle cx="302.55" cy="219.04999999999998" r="4" fill="yellow" stroke="red" stroke-width="2" />
<circle cx="305.1" cy="220.4" r="4" fill="yellow" stroke="red" stroke-width="2" />
<circle cx="307.45" cy="220.7" r="4" fill="yellow" stroke="red" stroke-width="2" />
<circle cx="310" cy="221.79999999999998" r="4" fill="yellow" stroke="red" stroke-width="2" />
<circle cx="312.2" cy="222.75" r="4" fill="yellow" stroke="red" stroke-width="2" />
<circle cx="315.35" cy="224.8" r="4" fill="yellow" stroke="red" stroke-width="2" />
<circle cx="318.65" cy="225.75" r="4" fill="yellow" stroke="red" stroke-width="2" />
<circle cx="321.85" cy="227.65" r="4" fill="yellow" stroke="red" stroke-width="2" />
<circle cx="325.45" cy="229.25" r="4" fill="yellow" stroke="red" stroke-width="2" />
<circle cx="328.7" cy="230.2" r="4" fill="yellow" stroke="red" stroke-width="2" />
<circle cx="332.40000000000003" cy="231.85" r="4" fill="yellow" stroke="red" stroke-width="2" />
<circle cx="337.3" cy="234.35" r="4" fill="yellow" stroke="red" stroke-width="2" />
<circle cx="341.25" cy="236.45" r="4" fill="yellow" stroke="red" stroke-width="2" />
<circle cx="347.2" cy="238.4" r="4" fill="yellow" stroke="red" stroke-width="2" />
<circle cx="353.34999999999997" cy="240.5" r="4" fill="yellow" stroke="red" stroke-width="2" />
<circle cx="359.59999999999997" cy="243.65" r="4" fill="yellow" stroke="red" stroke-width="2" />
<circle cx="365.7" cy="246.25" r="4" fill="yellow" stroke="red" stroke-width="2" />
<circle cx="373.35" cy="251.29999999999998" r="4" fill="yellow" stroke="red" stroke-width="2" />
<circle cx="382.54999999999995" cy="255.35" r="4" fill="yellow" stroke="red" stroke-width="2" />
<circle cx="392.05" cy="259.59999999999997" r="4" fill="yellow" stroke="red" stroke-width="2" />
<circle cx="403.65" cy="264.7" r="4" fill="yellow" stroke="red" stroke-width="2" />
<circle cx="418.8" cy="272.25" r="4" fill="yellow" stroke="red" stroke-width="2" />
<circle cx="435.95" cy="281.45" r="4" fill="yellow" stroke="red" stroke-width="2" />
<circle cx="453.1" cy="287.84999999999997" r="4" fill="yellow" stroke="red" stroke-width="2" />
<circle cx="476.55" cy="300.3" r="4" fill="yellow" stroke="red" stroke-width="2" />
<circle cx="503.20000000000005" cy="317.90000000000003" r="4" fill="yellow" stroke="red" stroke-width="2" />
<circle cx="542.6" cy="338.54999999999995" r="4" fill="yellow" stroke="red" stroke-width="2" />
<circle cx="581.2" cy="356.8" r="4" fill="yellow" stroke="red" stroke-width="2" />
<circle cx="275.99" cy="212.94" r="2" fill="green" stroke="black" stroke-width="1" />
<circle cx="290.056725" cy="220.91694999999996" r="2" fill="green" stroke="black" stroke-width="1" />
<circle cx="304.1829" cy="229.0278" r="2" fill="green" stroke="black" stroke-width="1" />
<circle cx="318.368525" cy="237.27255" r="2" fill="green" stroke="black" stroke-width="1" />
<circle cx="332.6136000000001" cy="245.65120000000002" r="2" fill="green" stroke="black" stroke-width="1" />
<circle cx="346.918125" cy="254.16375" r="2" fill="green" stroke="black" stroke-width="1" />
<circle cx="361.28209999999996" cy="262.81019999999995" r="2" fill="green" stroke="black" stroke-width="1" />
<circle cx="375.70552499999997" cy="271.59055" r="2" fill="green" stroke="black" stroke-width="1" />
<circle cx="390.1884" cy="280.50480000000005" r="2" fill="green" stroke="black" stroke-width="1" />
<circle cx="404.73072500000006" cy="289.55295000000007" r="2" fill="green" stroke="black" stroke-width="1" />
<circle cx="419.3325" cy="298.735" r="2" fill="green" stroke="black" stroke-width="1" />
<circle cx="433.99372500000004" cy="308.05095000000006" r="2" fill="green" stroke="black" stroke-width="1" />
<circle cx="448.71439999999996" cy="317.5008" r="2" fill="green" stroke="black" stroke-width="1" />
<circle cx="463.494525" cy="327.08455000000004" r="2" fill="green" stroke="black" stroke-width="1" />
<circle cx="478.33410000000003" cy="336.8022" r="2" fill="green" stroke="black" stroke-width="1" />
<circle cx="493.233125" cy="346.65375" r="2" fill="green" stroke="black" stroke-width="1" />
<circle cx="508.1916" cy="356.6392" r="2" fill="green" stroke="black" stroke-width="1" />
<circle cx="523.209525" cy="366.75855" r="2" fill="green" stroke="black" stroke-width="1" />
<circle cx="538.2869000000001" cy="377.01180000000005" r="2" fill="green" stroke="black" stroke-width="1" />
<circle cx="553.423725" cy="387.39895" r="2" fill="green" stroke="black" stroke-width="1" />
</svg>
