<svg xmlns="http://www.w3.org/2000/svg">
<rect x="0" y="0" width="640" height="480" fill-opacity="0.20" stroke="black" stroke-width="2" />
<circle cx="629.8499999999999" cy="290.6" r="4" fill="yellow" stroke="red" stroke-width="2" />
<circle cx="634.6999999999999" cy="290.5" r="4" fill="yellow" stroke="red" stroke-width="2" />
<circle cx="634.35" cy="290.95" r="4" fill="yellow" stroke="red" stroke-width="2" />
<circle cx="631.15" cy="290.35" r="4" fill="yellow" stroke="red" stroke-width="2" />
<circle cx="630.1500000000001" cy="290.84999999999997" r="4" fill="yellow" stroke="red" stroke-width="2" />
<circle cx="628.5500000000001" cy="291.35" r="4" fill="yellow" stroke="red" stroke-width="2" />
<circle cx="628.05" cy="290.3" r="4" fill="yellow" stroke="red" stroke-width="2" />
<circle cx="627.55" cy="288.45" r="4" fill="yellow" stroke="red" stroke-width="2" />
<circle cx="626.25" cy="288.95" r="4" fill="yellow" stroke="red" stroke-width="2" />
<circle cx="615.85" cy="288.45" r="4" fill="yellow" stroke="red" stroke-width="2" />
<circle cx="614.3000000000001" cy="289.7" r="4" fill="yellow" stroke="red" stroke-width="2" />
<circle cx="613.8" cy="291.6" r="4" fill="yellow" stroke="red" stroke-width="2" />
<circle cx="603.1500000000001" cy="288.05" r="4" fill="yellow" stroke="red" stroke-width="2" />
<circle cx="601.55" cy="288.59999999999997" r="4" fill="yellow" stroke="red" stroke-width="2" />
<circle cx="599.85" cy="290.1" r="4" fill="yellow" stroke="red" stroke-width="2" />
<circle cx="594.8" cy="290.09999999999997" r="4" fill="yellow" stroke="red" stroke-width="2" />
<circle cx="593.1" cy="290.8" r="4" fill="yellow" stroke="red" stroke-width="2" />
<circle cx="593" cy="288.35" r="4" fill="yellow" stroke="red" stroke-width="2" />
<circle cx="591.5" cy="288.85" r="4" fill="yellow" stroke="red" stroke-width="2" />
<circle cx="588.7" cy="289.05" r="4" fill="yellow" stroke="red" stroke-width="2" />
<circle cx="588.65" cy="289.45" r="4" fill="yellow" stroke="red" stroke-width="2" />
<circle cx="586.5" cy="290.05" r="4" fill="yellow" stroke="red" stroke-width="2" />
<circle cx="586.55" cy="289.59999999999997" r="4" fill="yellow" stroke="red" stroke-width="2" />
<circle cx="584.5" cy="288.25" r="4" fill="yellow" stroke="red" stroke-width="2" />
<circle cx="582.5500000000001" cy="287.8" r="4" fill="yellow" stroke="red" stroke-width="2" />
<circle cx="581.35" cy="289.6" r="4" fill="yellow" stroke="red" stroke-width="2" />
<circle cx="580" cy="290.25" r="4" fill="yellow" stroke="red" stroke-width="2" />
<circle cx="579.35" cy="289.04999999999995" r="4" fill="yellow" stroke="red" stroke-width="2" />
<circle cx="577.35" cy="287.8" r="4" fill="yellow" stroke="red" stroke-width="2" />
<circle cx="576.75" cy="288.79999999999995" r="4" fill="yellow" stroke="red" stroke-width="2" />
<circle cx="574.3000000000001" cy="289.5" r="4" fill="yellow" stroke="red" stroke-width="2" />
<circle cx="574.15" cy="289.25" r="4" fill="yellow" stroke="red" stroke-width="2" />
<circle cx="573.0500000000001" cy="289.15" r="4" fill="yellow" stroke="red" stroke-width="2" />
<circle cx="571.05" cy="288.95" r="4" fill="yellow" stroke="red" stroke-width="2" />
<circle cx="569.9" cy="288.3" r="4" fill="yellow" stroke="red" stroke-width="2" />
<circle cx="547.35" cy="287.55" r="4" fill="yellow" stroke="red" stroke-width="2" />
<circle cx="542.8000000000001" cy="287.45" r="4" fill="yellow" stroke="red" stroke-width="2" />
<circle cx="542.4499999999999" cy="286.2" r="4" fill="yellow" stroke="red" stroke-width="2" />
<circle cx="542.25" cy="287.1" r="4" fill="yellow" stroke="red" stroke-width="2" />
<circle cx="540.35" cy="290.25" r="4" fill="yellow" stroke="red" stroke-width="2" />
<circle cx="541.85" cy="287.90000000000003" r="4" fill="yellow" stroke="red" stroke-width="2" />
<circle cx="541.95" cy="286.65" r="4" fill="yellow" stroke="red" stroke-width="2" />
<circle cx="541.8000000000001" cy="287.9" r="4" fill="yellow" stroke="red" stroke-width="2" />
<circle cx="541.4" cy="287.84999999999997" r="4" fill="yellow" stroke="red" stroke-width="2" />
<circle cx="542.0999999999999" cy="287.3" r="4" fill="yellow" stroke="red" stroke-width="2" />
<circle cx="541.05" cy="286.95" r="4" fill="yellow" stroke="red" stroke-width="2" />
<circle cx="541.1" cy="287.9" r="4" fill="yellow" stroke="red" stroke-width="2" />
<circle cx="539.8" cy="290.35" r="4" fill="yellow" stroke="red" stroke-width="2" />
<circle cx="541.3" cy="290" r="4" fill="yellow" stroke="red" stroke-width="2" />
<circle cx="542.4" cy="287.65000000000003" r="4" fill="yellow" stroke="red" stroke-width="2" />
<circle cx="543.8" cy="287.40000000000003" r="4" fill="yellow" stroke="red" stroke-width="2" />
<circle cx="540.55" cy="286.7" r="4" fill="yellow" stroke="red" stroke-width="2" />
<circle cx="540.05" cy="290.6" r="4" fill="yellow" stroke="red" stroke-width="2" />
<circle cx="528.15" cy="291" r="4" fill="yellow" stroke="red" stroke-width="2" />
<circle cx="20.22" cy="246.84" r="2" fill="green" stroke="black" stroke-width="1" />
<circle cx="57.8141" cy="250.23049999999995" r="2" fill="green" stroke="black" stroke-width="1" />
<circle cx="94.70040000000002" cy="253.502" r="2" fill="green" stroke="black" stroke-width="1" />
<circle cx="130.8789" cy="256.6545" r="2" fill="green" stroke="black" stroke-width="1" />
<circle cx="166.3496" cy="259.68800000000005" r="2" fill="green" stroke="black" stroke-width="1" />
<circle cx="201.11249999999998" cy="262.6025" r="2" fill="green" stroke="black" stroke-width="1" />
<circle cx="235.16759999999996" cy="265.39799999999997" r="2" fill="green" stroke="black" stroke-width="1" />
<circle cx="268.51489999999995" cy="268.0745" r="2" fill="green" stroke="black" stroke-width="1" />
<circle cx="301.1544" cy="270.632" r="2" fill="green" stroke="black" stroke-width="1" />
<circle cx="333.0861" cy="273.0705" r="2" fill="green" stroke="black" stroke-width="1" />
<circle cx="364.31" cy="275.39" r="2" fill="green" stroke="black" stroke-width="1" />
<circle cx="394.8261" cy="277.5905" r="2" fill="green" stroke="black" stroke-width="1" />
<circle cx="424.63439999999997" cy="279.672" r="2" fill="green" stroke="black" stroke-width="1" />
<circle cx="453.7349" cy="281.6345" r="2" fill="green" stroke="black" stroke-width="1" />
<circle cx="482.1275999999999" cy="283.47799999999995" r="2" fill="green" stroke="black" stroke-width="1" />
<circle cx="509.8125" cy="285.20250000000004" r="2" fill="green" stroke="black" stroke-width="1" />
<circle cx="536.7896000000001" cy="286.808" r="2" fill="green" stroke="black" stroke-width="1" />
<circle cx="563.0589" cy="288.29449999999997" r="2" fill="green" stroke="black" stroke-width="1" />
<circle cx="588.6204" cy="289.662" r="2" fill="green" stroke="black" stroke-width="1" />
<circle cx="613.4741" cy="290.91049999999996" r="2" fill="green" stroke="black" stroke-width="1" />
</svg>
