<svg xmlns="http://www.w3.org/2000/svg">
<rect x="0" y="0" width="640" height="480" fill-opacity="0.20" stroke="black" stroke-width="2" />
<circle cx="635.0500000000001" cy="291.7" r="4" fill="yellow" stroke="red" stroke-width="2" />
<circle cx="633.6" cy="289.40000000000003" r="4" fill="yellow" stroke="red" stroke-width="2" />
<circle cx="632.9499999999999" cy="291.90000000000003" r="4" fill="yellow" stroke="red" stroke-width="2" />
<circle cx="632.8" cy="291.90000000000003" r="4" fill="yellow" stroke="red" stroke-width="2" />
<circle cx="632.1999999999999" cy="289.75" r="4" fill="yellow" stroke="red" stroke-width="2" />
<circle cx="631.25" cy="289.9" r="4" fill="yellow" stroke="red" stroke-width="2" />
<circle cx="630.85" cy="290.20000000000005" r="4" fill="yellow" stroke="red" stroke-width="2" />
<circle cx="629.25" cy="291.15" r="4" fill="yellow" stroke="red" stroke-width="2" />
<circle cx="629.05" cy="291" r="4" fill="yellow" stroke="red" stroke-width="2" />
<circle cx="628.3499999999999" cy="291.25" r="4" fill="yellow" stroke="red" stroke-width="2" />
<circle cx="627.9" cy="291.25" r="4" fill="yellow" stroke="red" stroke-width="2" />
<circle cx="627.2" cy="289.09999999999997" r="4" fill="yellow" stroke="red" stroke-width="2" />
<circle cx="625.35" cy="289.55" r="4" fill="yellow" stroke="red" stroke-width="2" />
<circle cx="615.6" cy="289.84999999999997" r="4" fill="yellow" stroke="red" stroke-width="2" />
<circle cx="611" cy="290.75" r="4" fill="yellow" stroke="red" stroke-width="2" />
<circle cx="610.3000000000001" cy="291.1" r="4" fill="yellow" stroke="red" stroke-width="2" />
<circle cx="604.1" cy="290.15" r="4" fill="yellow" stroke="red" stroke-width="2" />
<circle cx="603.35" cy="289.4" r="4" fill="yellow" stroke="red" stroke-width="2" />
<circle cx="602.5" cy="288" r="4" fill="yellow" stroke="red" stroke-width="2" />
<circle cx="601.25" cy="287.79999999999995" r="4" fill="yellow" stroke="red" stroke-width="2" />
<circle cx="599.7" cy="289" r="4" fill="yellow" stroke="red" stroke-width="2" />
<circle cx="599" cy="289.6" r="4" fill="yellow" stroke="red" stroke-width="2" />
<circle cx="598.5" cy="288.95" r="4" fill="yellow" stroke="red" stroke-width="2" />
<circle cx="597.9" cy="288.65" r="4" fill="yellow" stroke="red" stroke-width="2" />
<circle cx="597" cy="288.65000000000003" r="4" fill="yellow" stroke="red" stroke-width="2" />
<circle cx="595.3499999999999" cy="287.95" r="4" fill="yellow" stroke="red" stroke-width="2" />
<circle cx="594.05" cy="289.09999999999997" r="4" fill="yellow" stroke="red" stroke-width="2" />
<circle cx="592.75" cy="290.40000000000003" r="4" fill="yellow" stroke="red" stroke-width="2" />
<circle cx="591.9000000000001" cy="289.05" r="4" fill="yellow" stroke="red" stroke-width="2" />
<circle cx="590.5500000000001" cy="288.25" r="4" fill="yellow" stroke="red" stroke-width="2" />
<circle cx="588.75" cy="289.20000000000005" r="4" fill="yellow" stroke="red" stroke-width="2" />
<circle cx="588.5" cy="289.84999999999997" r="4" fill="yellow" stroke="red" stroke-width="2" />
<circle cx="582.5500000000001" cy="288.85" r="4" fill="yellow" stroke="red" stroke-width="2" />
<circle cx="581.6" cy="288.8" r="4" fill="yellow" stroke="red" stroke-width="2" />
<circle cx="580.9000000000001" cy="288.25" r="4" fill="yellow" stroke="red" stroke-width="2" />
<circle cx="579.5999999999999" cy="288" r="4" fill="yellow" stroke="red" stroke-width="2" />
<circle cx="578.6" cy="287.85" r="4" fill="yellow" stroke="red" stroke-width="2" />
<circle cx="576.5" cy="288.2" r="4" fill="yellow" stroke="red" stroke-width="2" />
<circle cx="575.75" cy="289.8" r="4" fill="yellow" stroke="red" stroke-width="2" />
<circle cx="575.1" cy="289.9" r="4" fill="yellow" stroke="red" stroke-width="2" />
<circle cx="574.75" cy="287.8" r="4" fill="yellow" stroke="red" stroke-width="2" />
<circle cx="573" cy="289.5" r="4" fill="yellow" stroke="red" stroke-width="2" />
<circle cx="572.15" cy="289.90000000000003" r="4" fill="yellow" stroke="red" stroke-width="2" />
<circle cx="571.5" cy="290.7" r="4" fill="yellow" stroke="red" stroke-width="2" />
<circle cx="571.35" cy="288.2" r="4" fill="yellow" stroke="red" stroke-width="2" />
<circle cx="570.45" cy="288.65000000000003" r="4" fill="yellow" stroke="red" stroke-width="2" />
<circle cx="569.25" cy="289.04999999999995" r="4" fill="yellow" stroke="red" stroke-width="2" />
<circle cx="568.95" cy="288.40000000000003" r="4" fill="yellow" stroke="red" stroke-width="2" />
<circle cx="569" cy="288.90000000000003" r="4" fill="yellow" stroke="red" stroke-width="2" />
<circle cx="568.4" cy="289.95" r="4" fill="yellow" stroke="red" stroke-width="2" />
<circle cx="569.5500000000001" cy="287.84999999999997" r="4" fill="yellow" stroke="red" stroke-width="2" />
<circle cx="568.2" cy="288.25" r="4" fill="yellow" stroke="red" stroke-width="2" />
<circle cx="568.8" cy="287.45" r="4" fill="yellow" stroke="red" stroke-width="2" />
<circle cx="567.3499999999999" cy="287.95" r="4" fill="yellow" stroke="red" stroke-width="2" />
<circle cx="566.1999999999999" cy="288.1" r="4" fill="yellow" stroke="red" stroke-width="2" />
<circle cx="567.6999999999999" cy="288" r="4" fill="yellow" stroke="red" stroke-width="2" />
<circle cx="568.15" cy="288.29999999999995" r="4" fill="yellow" stroke="red" stroke-width="2" />
<circle cx="566.85" cy="286.95" r="4" fill="yellow" stroke="red" stroke-width="2" />
<circle cx="566" cy="289.95" r="4" fill="yellow" stroke="red" stroke-width="2" />
<circle cx="565.5500000000001" cy="291.79999999999995" r="4" fill="yellow" stroke="red" stroke-width="2" />
<circle cx="565.0500000000001" cy="290.25" r="4" fill="yellow" stroke="red" stroke-width="2" />
<circle cx="563.5500000000001" cy="291" r="4" fill="yellow" stroke="red" stroke-width="2" />
<circle cx="563.75" cy="290.7" r="4" fill="yellow" stroke="red" stroke-width="2" />
<circle cx="565.35" cy="289.9" r="4" fill="yellow" stroke="red" stroke-width="2" />
<circle cx="565.6" cy="289.3" r="4" fill="yellow" stroke="red" stroke-width="2" />
<circle cx="565.4" cy="288.75" r="4" fill="yellow" stroke="red" stroke-width="2" />
<circle cx="565.25" cy="288.09999999999997" r="4" fill="yellow" stroke="red" stroke-width="2" />
<circle cx="565.4" cy="288" r="4" fill="yellow" stroke="red" stroke-width="2" />
<circle cx="564.7" cy="288.85" r="4" fill="yellow" stroke="red" stroke-width="2" />
<circle cx="563.8499999999999" cy="290" r="4" fill="yellow" stroke="red" stroke-width="2" />
<circle cx="564.6" cy="288.65000000000003" r="4" fill="yellow" stroke="red" stroke-width="2" />
<circle cx="563.1" cy="288.25" r="4" fill="yellow" stroke="red" stroke-width="2" />
<circle cx="562.65" cy="288.85" r="4" fill="yellow" stroke="red" stroke-width="2" />
<circle cx="563.4" cy="287.75" r="4" fill="yellow" stroke="red" stroke-width="2" />
<circle cx="562.5" cy="289.35" r="4" fill="yellow" stroke="red" stroke-width="2" />
<circle cx="561.75" cy="289.4" r="4" fill="yellow" stroke="red" stroke-width="2" />
<circle cx="561.45" cy="288.45" r="4" fill="yellow" stroke="red" stroke-width="2" />
<circle cx="561.3" cy="287.45" r="4" fill="yellow" stroke="red" stroke-width="2" />
<circle cx="559.9" cy="289.55" r="4" fill="yellow" stroke="red" stroke-width="2" />
<circle cx="559.8000000000001" cy="289.5" r="4" fill="yellow" stroke="red" stroke-width="2" />
<circle cx="558.75" cy="289.45000000000005" r="4" fill="yellow" stroke="red" stroke-width="2" />
<circle cx="558.7" cy="289" r="4" fill="yellow" stroke="red" stroke-width="2" />
<circle cx="558.5500000000001" cy="288.35" r="4" fill="yellow" stroke="red" stroke-width="2" />
<circle cx="558.3499999999999" cy="288.5" r="4" fill="yellow" stroke="red" stroke-width="2" />
<circle cx="557.25" cy="288.8" r="4" fill="yellow" stroke="red" stroke-width="2" />
<circle cx="556.75" cy="289" r="4" fill="yellow" stroke="red" stroke-width="2" />
<circle cx="554.9000000000001" cy="288.65" r="4" fill="yellow" stroke="red" stroke-width="2" />
<circle cx="548.9" cy="287.75" r="4" fill="yellow" stroke="red" stroke-width="2" />
<circle cx="547.75" cy="287.6" r="4" fill="yellow" stroke="red" stroke-width="2" />
<circle cx="547.85" cy="288.34999999999997" r="4" fill="yellow" stroke="red" stroke-width="2" />
<circle cx="546.6500000000001" cy="288.34999999999997" r="4" fill="yellow" stroke="red" stroke-width="2" />
<circle cx="545.3000000000001" cy="288.3" r="4" fill="yellow" stroke="red" stroke-width="2" />
<circle cx="544.0500000000001" cy="287.65000000000003" r="4" fill="yellow" stroke="red" stroke-width="2" />
<circle cx="537.35" cy="287.75" r="4" fill="yellow" stroke="red" stroke-width="2" />
<circle cx="535.15" cy="287.5" r="4" fill="yellow" stroke="red" stroke-width="2" />
<circle cx="534.15" cy="286.40000000000003" r="4" fill="yellow" stroke="red" stroke-width="2" />
<circle cx="532.1999999999999" cy="287.09999999999997" r="4" fill="yellow" stroke="red" stroke-width="2" />
<circle cx="530.4" cy="286.35" r="4" fill="yellow" stroke="red" stroke-width="2" />
<circle cx="522.8000000000001" cy="284.6" r="4" fill="yellow" stroke="red" stroke-width="2" />
<circle cx="334.05" cy="239.5" r="4" fill="yellow" stroke="red" stroke-width="2" />
<circle cx="332.4" cy="238.25" r="4" fill="yellow" stroke="red" stroke-width="2" />
<circle cx="266.97" cy="204.219" r="2" fill="green" stroke="black" stroke-width="1" />
<circle cx="284.02442499999995" cy="211.98364750000002" r="2" fill="green" stroke="black" stroke-width="1" />
<circle cx="301.21970000000005" cy="219.37739000000002" r="2" fill="green" stroke="black" stroke-width="1" />
<circle cx="318.555825" cy="226.4002275" r="2" fill="green" stroke="black" stroke-width="1" />
<circle cx="336.0328000000001" cy="233.05216000000001" r="2" fill="green" stroke="black" stroke-width="1" />
<circle cx="353.650625" cy="239.3331875" r="2" fill="green" stroke="black" stroke-width="1" />
<circle cx="371.4093" cy="245.24330999999998" r="2" fill="green" stroke="black" stroke-width="1" />
<circle cx="389.308825" cy="250.78252750000001" r="2" fill="green" stroke="black" stroke-width="1" />
<circle cx="407.34920000000005" cy="255.95083999999997" r="2" fill="green" stroke="black" stroke-width="1" />
<circle cx="425.53042500000004" cy="260.74824750000005" r="2" fill="green" stroke="black" stroke-width="1" />
<circle cx="443.8525000000001" cy="265.17475" r="2" fill="green" stroke="black" stroke-width="1" />
<circle cx="462.31542500000006" cy="269.23034750000005" r="2" fill="green" stroke="black" stroke-width="1" />
<circle cx="480.91920000000005" cy="272.91504000000003" r="2" fill="green" stroke="black" stroke-width="1" />
<circle cx="499.663825" cy="276.2288275" r="2" fill="green" stroke="black" stroke-width="1" />
<circle cx="518.5493" cy="279.17170999999996" r="2" fill="green" stroke="black" stroke-width="1" />
<circle cx="537.575625" cy="281.7436875000001" r="2" fill="green" stroke="black" stroke-width="1" />
<circle cx="556.7428" cy="283.94476000000003" r="2" fill="green" stroke="black" stroke-width="1" />
<circle cx="576.050825" cy="285.7749275" r="2" fill="green" stroke="black" stroke-width="1" />
<circle cx="595.4997000000001" cy="287.23419" r="2" fill="green" stroke="black" stroke-width="1" />
<circle cx="615.0894250000001" cy="288.32254750000004" r="2" fill="green" stroke="black" stroke-width="1" />
</svg>
