<svg xmlns="http://www.w3.org/2000/svg">
<rect x="0" y="0" width="640" height="480" fill-opacity="0.20" stroke="black" stroke-width="2" />
<circle cx="556.25" cy="294.8" r="4" fill="yellow" stroke="red" stroke-width="2" />
<circle cx="517.15" cy="293.25" r="4" fill="yellow" stroke="red" stroke-width="2" />
<circle cx="514.9" cy="292.4" r="4" fill="yellow" stroke="red" stroke-width="2" />
<circle cx="515.75" cy="291.2" r="4" fill="yellow" stroke="red" stroke-width="2" />
<circle cx="515.9499999999999" cy="292.15000000000003" r="4" fill="yellow" stroke="red" stroke-width="2" />
<circle cx="516.45" cy="291.05" r="4" fill="yellow" stroke="red" stroke-width="2" />
<circle cx="521.6" cy="290.85" r="4" fill="yellow" stroke="red" stroke-width="2" />
<circle cx="520.65" cy="290.34999999999997" r="4" fill="yellow" stroke="red" stroke-width="2" />
<circle cx="522.35" cy="290.4" r="4" fill="yellow" stroke="red" stroke-width="2" />
<circle cx="526.15" cy="290.4" r="4" fill="yellow" stroke="red" stroke-width="2" />
<circle cx="520.2" cy="291.2" r="4" fill="yellow" stroke="red" stroke-width="2" />
<circle cx="522.95" cy="291.25" r="4" fill="yellow" stroke="red" stroke-width="2" />
<circle cx="521.6999999999999" cy="291.05" r="4" fill="yellow" stroke="red" stroke-width="2" />
<circle cx="521.1" cy="290.75" r="4" fill="yellow" stroke="red" stroke-width="2" />
<circle cx="521.4" cy="290.7" r="4" fill="yellow" stroke="red" stroke-width="2" />
<circle cx="520.15" cy="290.85" r="4" fill="yellow" stroke="red" stroke-width="2" />
<circle cx="520.95" cy="290.2" r="4" fill="yellow" stroke="red" stroke-width="2" />
<circle cx="521" cy="291.05" r="4" fill="yellow" stroke="red" stroke-width="2" />
<circle cx="521.9" cy="292.15000000000003" r="4" fill="yellow" stroke="red" stroke-width="2" />
<circle cx="518.55" cy="290.5" r="4" fill="yellow" stroke="red" stroke-width="2" />
<circle cx="511.05" cy="290.75" r="4" fill="yellow" stroke="red" stroke-width="2" />
<circle cx="508" cy="291" r="4" fill="yellow" stroke="red" stroke-width="2" />
<circle cx="507.05" cy="290.84999999999997" r="4" fill="yellow" stroke="red" stroke-width="2" />
<circle cx="504.55" cy="290.84999999999997" r="4" fill="yellow" stroke="red" stroke-width="2" />
<circle cx="502.95000000000005" cy="292.70000000000005" r="4" fill="yellow" stroke="red" stroke-width="2" />
<circle cx="501.04999999999995" cy="292.8" r="4" fill="yellow" stroke="red" stroke-width="2" />
<circle cx="20.22" cy="246.84" r="2" fill="green" stroke="black" stroke-width="1" />
<circle cx="57.8141" cy="250.23049999999995" r="2" fill="green" stroke="black" stroke-width="1" />
<circle cx="94.70040000000002" cy="253.502" r="2" fill="green" stroke="black" stroke-width="1" />
<circle cx="130.8789" cy="256.6545" r="2" fill="green" stroke="black" stroke-width="1" />
<circle cx="166.3496" cy="259.68800000000005" r="2" fill="green" stroke="black" stroke-width="1" />
<circle cx="201.11249999999998" cy="262.6025" r="2" fill="green" stroke="black" stroke-width="1" />
<circle cx="235.16759999999996" cy="265.39799999999997" r="2" fill="green" stroke="black" stroke-width="1" />
<circle cx="268.51489999999995" cy="268.0745" r="2" fill="green" stroke="black" stroke-width="1" />
<circle cx="301.1544" cy="270.632" r="2" fill="green" stroke="black" stroke-width="1" />
<circle cx="333.0861" cy="273.0705" r="2" fill="green" stroke="black" stroke-width="1" />
<circle cx="364.31" cy="275.39" r="2" fill="green" stroke="black" stroke-width="1" />
<circle cx="394.8261" cy="277.5905" r="2" fill="green" stroke="black" stroke-width="1" />
<circle cx="424.63439999999997" cy="279.672" r="2" fill="green" stroke="black" stroke-width="1" />
<circle cx="453.7349" cy="281.6345" r="2" fill="green" stroke="black" stroke-width="1" />
<circle cx="482.1275999999999" cy="283.47799999999995" r="2" fill="green" stroke="black" stroke-width="1" />
<circle cx="509.8125" cy="285.20250000000004" r="2" fill="green" stroke="black" stroke-width="1" />
<circle cx="536.7896000000001" cy="286.808" r="2" fill="green" stroke="black" stroke-width="1" />
<circle cx="563.0589" cy="288.29449999999997" r="2" fill="green" stroke="black" stroke-width="1" />
<circle cx="588.6204" cy="289.662" r="2" fill="green" stroke="black" stroke-width="1" />
<circle cx="613.4741" cy="290.91049999999996" r="2" fill="green" stroke="black" stroke-width="1" />
</svg>
