<svg xmlns="http://www.w3.org/2000/svg">
<rect x="0" y="0" width="640" height="480" fill-opacity="0.20" stroke="black" stroke-width="2" />
<circle cx="269.7" cy="206.5" r="4" fill="yellow" stroke="red" stroke-width="2" />
<circle cx="272.4" cy="206.10000000000002" r="4" fill="yellow" stroke="red" stroke-width="2" />
<circle cx="274" cy="207" r="4" fill="yellow" stroke="red" stroke-width="2" />
<circle cx="274.59999999999997" cy="207.45" r="4" fill="yellow" stroke="red" stroke-width="2" />
<circle cx="278.2" cy="207.79999999999998" r="4" fill="yellow" stroke="red" stroke-width="2" />
<circle cx="278.9" cy="208.65" r="4" fill="yellow" stroke="red" stroke-width="2" />
<circle cx="280" cy="209.9" r="4" fill="yellow" stroke="red" stroke-width="2" />
<circle cx="281.3" cy="209.79999999999998" r="4" fill="yellow" stroke="red" stroke-width="2" />
<circle cx="281.8" cy="209.15" r="4" fill="yellow" stroke="red" stroke-width="2" />
<circle cx="283.15" cy="209.85" r="4" fill="yellow" stroke="red" stroke-width="2" />
<circle cx="285.75" cy="211.35" r="4" fill="yellow" stroke="red" stroke-width="2" />
<circle cx="286.6" cy="212" r="4" fill="yellow" stroke="red" stroke-width="2" />
<circle cx="287.7" cy="212.15" r="4" fill="yellow" stroke="red" stroke-width="2" />
<circle cx="288.5" cy="211.95" r="4" fill="yellow" stroke="red" stroke-width="2" />
<circle cx="300.75" cy="218.35" r="4" fill="yellow" stroke="red" stroke-width="2" />
<circle cx="338.70000000000005" cy="233.65" r="4" fill="yellow" stroke="red" stroke-width="2" />
<circle cx="341.9" cy="234.75" r="4" fill="yellow" stroke="red" stroke-width="2" />
<circle cx="345.5" cy="234.65" r="4" fill="yellow" stroke="red" stroke-width="2" />
<circle cx="375.2" cy="248.5" r="4" fill="yellow" stroke="red" stroke-width="2" />
<circle cx="382.25" cy="252.04999999999998" r="4" fill="yellow" stroke="red" stroke-width="2" />
<circle cx="389.8" cy="255.15" r="4" fill="yellow" stroke="red" stroke-width="2" />
<circle cx="399.45" cy="259.35" r="4" fill="yellow" stroke="red" stroke-width="2" />
<circle cx="409.59999999999997" cy="263.3" r="4" fill="yellow" stroke="red" stroke-width="2" />
<circle cx="420.55" cy="268.55" r="4" fill="yellow" stroke="red" stroke-width="2" />
<circle cx="433.25" cy="274.95" r="4" fill="yellow" stroke="red" stroke-width="2" />
<circle cx="449.7" cy="282.25" r="4" fill="yellow" stroke="red" stroke-width="2" />
<circle cx="467.25" cy="289.7" r="4" fill="yellow" stroke="red" stroke-width="2" />
<circle cx="486.3" cy="299.65" r="4" fill="yellow" stroke="red" stroke-width="2" />
<circle cx="509" cy="309" r="4" fill="yellow" stroke="red" stroke-width="2" />
<circle cx="531.5" cy="324.79999999999995" r="4" fill="yellow" stroke="red" stroke-width="2" />
<circle cx="568.4499999999999" cy="339.90000000000003" r="4" fill="yellow" stroke="red" stroke-width="2" />
<circle cx="588" cy="354.59999999999997" r="4" fill="yellow" stroke="red" stroke-width="2" />
<circle cx="605.9" cy="364.6" r="4" fill="yellow" stroke="red" stroke-width="2" />
<circle cx="266.97" cy="204.219" r="2" fill="green" stroke="black" stroke-width="1" />
<circle cx="284.02442499999995" cy="211.98364750000002" r="2" fill="green" stroke="black" stroke-width="1" />
<circle cx="301.21970000000005" cy="219.37739000000002" r="2" fill="green" stroke="black" stroke-width="1" />
<circle cx="318.555825" cy="226.4002275" r="2" fill="green" stroke="black" stroke-width="1" />
<circle cx="336.0328000000001" cy="233.05216000000001" r="2" fill="green" stroke="black" stroke-width="1" />
<circle cx="353.650625" cy="239.3331875" r="2" fill="green" stroke="black" stroke-width="1" />
<circle cx="371.4093" cy="245.24330999999998" r="2" fill="green" stroke="black" stroke-width="1" />
<circle cx="389.308825" cy="250.78252750000001" r="2" fill="green" stroke="black" stroke-width="1" />
<circle cx="407.34920000000005" cy="255.95083999999997" r="2" fill="green" stroke="black" stroke-width="1" />
<circle cx="425.53042500000004" cy="260.74824750000005" r="2" fill="green" stroke="black" stroke-width="1" />
<circle cx="443.8525000000001" cy="265.17475" r="2" fill="green" stroke="black" stroke-width="1" />
<circle cx="462.31542500000006" cy="269.23034750000005" r="2" fill="green" stroke="black" stroke-width="1" />
<circle cx="480.91920000000005" cy="272.91504000000003" r="2" fill="green" stroke="black" stroke-width="1" />
<circle cx="499.663825" cy="276.2288275" r="2" fill="green" stroke="black" stroke-width="1" />
<circle cx="518.5493" cy="279.17170999999996" r="2" fill="green" stroke="black" stroke-width="1" />
<circle cx="537.575625" cy="281.7436875000001" r="2" fill="green" stroke="black" stroke-width="1" />
<circle cx="556.7428" cy="283.94476000000003" r="2" fill="green" stroke="black" stroke-width="1" />
<circle cx="576.050825" cy="285.7749275" r="2" fill="green" stroke="black" stroke-width="1" />
<circle cx="595.4997000000001" cy="287.23419" r="2" fill="green" stroke="black" stroke-width="1" />
<circle cx="615.0894250000001" cy="288.32254750000004" r="2" fill="green" stroke="black" stroke-width="1" />
</svg>
