<svg xmlns="http://www.w3.org/2000/svg">
<rect x="0" y="0" width="640" height="480" fill-opacity="0.20" stroke="black" stroke-width="2" />
<circle cx="566.5999999999999" cy="289.35" r="4" fill="yellow" stroke="red" stroke-width="2" />
<circle cx="567.3" cy="289.09999999999997" r="4" fill="yellow" stroke="red" stroke-width="2" />
<circle cx="567.1" cy="287.55" r="4" fill="yellow" stroke="red" stroke-width="2" />
<circle cx="566.9" cy="286.95" r="4" fill="yellow" stroke="red" stroke-width="2" />
<circle cx="20.22" cy="246.84" r="2" fill="green" stroke="black" stroke-width="1" />
<circle cx="57.8141" cy="250.23049999999995" r="2" fill="green" stroke="black" stroke-width="1" />
<circle cx="94.70040000000002" cy="253.502" r="2" fill="green" stroke="black" stroke-width="1" />
<circle cx="130.8789" cy="256.6545" r="2" fill="green" stroke="black" stroke-width="1" />
<circle cx="166.3496" cy="259.68800000000005" r="2" fill="green" stroke="black" stroke-width="1" />
<circle cx="201.11249999999998" cy="262.6025" r="2" fill="green" stroke="black" stroke-width="1" />
<circle cx="235.16759999999996" cy="265.39799999999997" r="2" fill="green" stroke="black" stroke-width="1" />
<circle cx="268.51489999999995" cy="268.0745" r="2" fill="green" stroke="black" stroke-width="1" />
<circle cx="301.1544" cy="270.632" r="2" fill="green" stroke="black" stroke-width="1" />
<circle cx="333.0861" cy="273.0705" r="2" fill="green" stroke="black" stroke-width="1" />
<circle cx="364.31" cy="275.39" r="2" fill="green" stroke="black" stroke-width="1" />
<circle cx="394.8261" cy="277.5905" r="2" fill="green" stroke="black" stroke-width="1" />
<circle cx="424.63439999999997" cy="279.672" r="2" fill="green" stroke="black" stroke-width="1" />
<circle cx="453.7349" cy="281.6345" r="2" fill="green" stroke="black" stroke-width="1" />
<circle cx="482.1275999999999" cy="283.47799999999995" r="2" fill="green" stroke="black" stroke-width="1" />
<circle cx="509.8125" cy="285.20250000000004" r="2" fill="green" stroke="black" stroke-width="1" />
<circle cx="536.7896000000001" cy="286.808" r="2" fill="green" stroke="black" stroke-width="1" />
<circle cx="563.0589" cy="288.29449999999997" r="2" fill="green" stroke="black" stroke-width="1" />
<circle cx="588.6204" cy="289.662" r="2" fill="green" stroke="black" stroke-width="1" />
<circle cx="613.4741" cy="290.91049999999996" r="2" fill="green" stroke="black" stroke-width="1" />
</svg>
