<svg xmlns="http://www.w3.org/2000/svg">
<rect x="0" y="0" width="640" height="480" fill-opacity="0.20" stroke="black" stroke-width="2" />
<circle cx="430.3" cy="298" r="4" fill="yellow" stroke="red" stroke-width="2" />
<circle cx="413.6" cy="287.7" r="4" fill="yellow" stroke="red" stroke-width="2" />
<circle cx="393.95" cy="277.25" r="4" fill="yellow" stroke="red" stroke-width="2" />
<circle cx="383.55" cy="269.3" r="4" fill="yellow" stroke="red" stroke-width="2" />
<circle cx="371.3" cy="263" r="4" fill="yellow" stroke="red" stroke-width="2" />
<circle cx="362.9" cy="257.75" r="4" fill="yellow" stroke="red" stroke-width="2" />
<circle cx="356.3" cy="252.4" r="4" fill="yellow" stroke="red" stroke-width="2" />
<circle cx="348.4" cy="248.70000000000002" r="4" fill="yellow" stroke="red" stroke-width="2" />
<circle cx="343.20000000000005" cy="245.3" r="4" fill="yellow" stroke="red" stroke-width="2" />
<circle cx="338.15" cy="242.45" r="4" fill="yellow" stroke="red" stroke-width="2" />
<circle cx="333.45" cy="239.70000000000002" r="4" fill="yellow" stroke="red" stroke-width="2" />
<circle cx="329.2" cy="237.15" r="4" fill="yellow" stroke="red" stroke-width="2" />
<circle cx="323.95000000000005" cy="234.85" r="4" fill="yellow" stroke="red" stroke-width="2" />
<circle cx="321.2" cy="232.2" r="4" fill="yellow" stroke="red" stroke-width="2" />
<circle cx="317.25" cy="230.9" r="4" fill="yellow" stroke="red" stroke-width="2" />
<circle cx="314.40000000000003" cy="228.5" r="4" fill="yellow" stroke="red" stroke-width="2" />
<circle cx="299.75" cy="222.25" r="4" fill="yellow" stroke="red" stroke-width="2" />
<circle cx="297.15000000000003" cy="221.35" r="4" fill="yellow" stroke="red" stroke-width="2" />
<circle cx="295" cy="220.3" r="4" fill="yellow" stroke="red" stroke-width="2" />
<circle cx="292" cy="219.1" r="4" fill="yellow" stroke="red" stroke-width="2" />
<circle cx="282.75" cy="215.7" r="4" fill="yellow" stroke="red" stroke-width="2" />
<circle cx="280.8" cy="214.4" r="4" fill="yellow" stroke="red" stroke-width="2" />
<circle cx="279.2" cy="213.45" r="4" fill="yellow" stroke="red" stroke-width="2" />
<circle cx="275.99" cy="212.94" r="2" fill="green" stroke="black" stroke-width="1" />
<circle cx="290.056725" cy="220.91694999999996" r="2" fill="green" stroke="black" stroke-width="1" />
<circle cx="304.1829" cy="229.0278" r="2" fill="green" stroke="black" stroke-width="1" />
<circle cx="318.368525" cy="237.27255" r="2" fill="green" stroke="black" stroke-width="1" />
<circle cx="332.6136000000001" cy="245.65120000000002" r="2" fill="green" stroke="black" stroke-width="1" />
<circle cx="346.918125" cy="254.16375" r="2" fill="green" stroke="black" stroke-width="1" />
<circle cx="361.28209999999996" cy="262.81019999999995" r="2" fill="green" stroke="black" stroke-width="1" />
<circle cx="375.70552499999997" cy="271.59055" r="2" fill="green" stroke="black" stroke-width="1" />
<circle cx="390.1884" cy="280.50480000000005" r="2" fill="green" stroke="black" stroke-width="1" />
<circle cx="404.73072500000006" cy="289.55295000000007" r="2" fill="green" stroke="black" stroke-width="1" />
<circle cx="419.3325" cy="298.735" r="2" fill="green" stroke="black" stroke-width="1" />
<circle cx="433.99372500000004" cy="308.05095000000006" r="2" fill="green" stroke="black" stroke-width="1" />
<circle cx="448.71439999999996" cy="317.5008" r="2" fill="green" stroke="black" stroke-width="1" />
<circle cx="463.494525" cy="327.08455000000004" r="2" fill="green" stroke="black" stroke-width="1" />
<circle cx="478.33410000000003" cy="336.8022" r="2" fill="green" stroke="black" stroke-width="1" />
<circle cx="493.233125" cy="346.65375" r="2" fill="green" stroke="black" stroke-width="1" />
<circle cx="508.1916" cy="356.6392" r="2" fill="green" stroke="black" stroke-width="1" />
<circle cx="523.209525" cy="366.75855" r="2" fill="green" stroke="black" stroke-width="1" />
<circle cx="538.2869000000001" cy="377.01180000000005" r="2" fill="green" stroke="black" stroke-width="1" />
<circle cx="553.423725" cy="387.39895" r="2" fill="green" stroke="black" stroke-width="1" />
</svg>
