<svg xmlns="http://www.w3.org/2000/svg">
<rect x="0" y="0" width="640" height="480" fill-opacity="0.20" stroke="black" stroke-width="2" />
<circle cx="426.9" cy="300.70000000000005" r="4" fill="yellow" stroke="red" stroke-width="2" />
<circle cx="391.4" cy="277.5" r="4" fill="yellow" stroke="red" stroke-width="2" />
<circle cx="378.45" cy="269.95" r="4" fill="yellow" stroke="red" stroke-width="2" />
<circle cx="367.1" cy="262.9" r="4" fill="yellow" stroke="red" stroke-width="2" />
<circle cx="349.75" cy="252.65" r="4" fill="yellow" stroke="red" stroke-width="2" />
<circle cx="337.84999999999997" cy="245.35000000000002" r="4" fill="yellow" stroke="red" stroke-width="2" />
<circle cx="332.4" cy="242.20000000000002" r="4" fill="yellow" stroke="red" stroke-width="2" />
<circle cx="323" cy="236.75" r="4" fill="yellow" stroke="red" stroke-width="2" />
<circle cx="319" cy="234.15" r="4" fill="yellow" stroke="red" stroke-width="2" />
<circle cx="315.25" cy="232.15" r="4" fill="yellow" stroke="red" stroke-width="2" />
<circle cx="311.55" cy="230.29999999999998" r="4" fill="yellow" stroke="red" stroke-width="2" />
<circle cx="308.5" cy="228.9" r="4" fill="yellow" stroke="red" stroke-width="2" />
<circle cx="304.75" cy="227.15" r="4" fill="yellow" stroke="red" stroke-width="2" />
<circle cx="302.34999999999997" cy="225.5" r="4" fill="yellow" stroke="red" stroke-width="2" />
<circle cx="299.5" cy="224.45" r="4" fill="yellow" stroke="red" stroke-width="2" />
<circle cx="296.59999999999997" cy="223.10000000000002" r="4" fill="yellow" stroke="red" stroke-width="2" />
<circle cx="294.5" cy="221.8" r="4" fill="yellow" stroke="red" stroke-width="2" />
<circle cx="291.7" cy="220.6" r="4" fill="yellow" stroke="red" stroke-width="2" />
<circle cx="290.5" cy="219.45" r="4" fill="yellow" stroke="red" stroke-width="2" />
<circle cx="287.7" cy="218.9" r="4" fill="yellow" stroke="red" stroke-width="2" />
<circle cx="286.3" cy="218" r="4" fill="yellow" stroke="red" stroke-width="2" />
<circle cx="275.99" cy="212.94" r="2" fill="green" stroke="black" stroke-width="1" />
<circle cx="290.056725" cy="220.91694999999996" r="2" fill="green" stroke="black" stroke-width="1" />
<circle cx="304.1829" cy="229.0278" r="2" fill="green" stroke="black" stroke-width="1" />
<circle cx="318.368525" cy="237.27255" r="2" fill="green" stroke="black" stroke-width="1" />
<circle cx="332.6136000000001" cy="245.65120000000002" r="2" fill="green" stroke="black" stroke-width="1" />
<circle cx="346.918125" cy="254.16375" r="2" fill="green" stroke="black" stroke-width="1" />
<circle cx="361.28209999999996" cy="262.81019999999995" r="2" fill="green" stroke="black" stroke-width="1" />
<circle cx="375.70552499999997" cy="271.59055" r="2" fill="green" stroke="black" stroke-width="1" />
<circle cx="390.1884" cy="280.50480000000005" r="2" fill="green" stroke="black" stroke-width="1" />
<circle cx="404.73072500000006" cy="289.55295000000007" r="2" fill="green" stroke="black" stroke-width="1" />
<circle cx="419.3325" cy="298.735" r="2" fill="green" stroke="black" stroke-width="1" />
<circle cx="433.99372500000004" cy="308.05095000000006" r="2" fill="green" stroke="black" stroke-width="1" />
<circle cx="448.71439999999996" cy="317.5008" r="2" fill="green" stroke="black" stroke-width="1" />
<circle cx="463.494525" cy="327.08455000000004" r="2" fill="green" stroke="black" stroke-width="1" />
<circle cx="478.33410000000003" cy="336.8022" r="2" fill="green" stroke="black" stroke-width="1" />
<circle cx="493.233125" cy="346.65375" r="2" fill="green" stroke="black" stroke-width="1" />
<circle cx="508.1916" cy="356.6392" r="2" fill="green" stroke="black" stroke-width="1" />
<circle cx="523.209525" cy="366.75855" r="2" fill="green" stroke="black" stroke-width="1" />
<circle cx="538.2869000000001" cy="377.01180000000005" r="2" fill="green" stroke="black" stroke-width="1" />
<circle cx="553.423725" cy="387.39895" r="2" fill="green" stroke="black" stroke-width="1" />
</svg>
