<svg xmlns="http://www.w3.org/2000/svg">
<rect x="0" y="0" width="640" height="480" fill-opacity="0.20" stroke="black" stroke-width="2" />
<circle cx="47.050000000000004" cy="217.25" r="4" fill="yellow" stroke="red" stroke-width="2" />
<circle cx="55.8" cy="210.6" r="4" fill="yellow" stroke="red" stroke-width="2" />
<circle cx="65.05" cy="214.05" r="4" fill="yellow" stroke="red" stroke-width="2" />
<circle cx="72.94999999999999" cy="215.75" r="4" fill="yellow" stroke="red" stroke-width="2" />
<circle cx="76.25" cy="213.5" r="4" fill="yellow" stroke="red" stroke-width="2" />
<circle cx="88.75" cy="216.4" r="4" fill="yellow" stroke="red" stroke-width="2" />
<circle cx="93.75" cy="216.14999999999998" r="4" fill="yellow" stroke="red" stroke-width="2" />
<circle cx="101.15" cy="217.55" r="4" fill="yellow" stroke="red" stroke-width="2" />
<circle cx="109.55" cy="216.14999999999998" r="4" fill="yellow" stroke="red" stroke-width="2" />
<circle cx="328.29999999999995" cy="242.39999999999998" r="4" fill="yellow" stroke="red" stroke-width="2" />
<circle cx="330.3" cy="242.9" r="4" fill="yellow" stroke="red" stroke-width="2" />
<circle cx="335.09999999999997" cy="242.54999999999998" r="4" fill="yellow" stroke="red" stroke-width="2" />
<circle cx="333.20000000000005" cy="243.05" r="4" fill="yellow" stroke="red" stroke-width="2" />
<circle cx="341.7" cy="243.29999999999998" r="4" fill="yellow" stroke="red" stroke-width="2" />
<circle cx="344.54999999999995" cy="243.8" r="4" fill="yellow" stroke="red" stroke-width="2" />
<circle cx="347.55" cy="243.2" r="4" fill="yellow" stroke="red" stroke-width="2" />
<circle cx="347" cy="242.5" r="4" fill="yellow" stroke="red" stroke-width="2" />
<circle cx="351.7" cy="243.04999999999998" r="4" fill="yellow" stroke="red" stroke-width="2" />
<circle cx="351.55" cy="244.6" r="4" fill="yellow" stroke="red" stroke-width="2" />
<circle cx="353.55" cy="244.2" r="4" fill="yellow" stroke="red" stroke-width="2" />
<circle cx="354" cy="243.64999999999998" r="4" fill="yellow" stroke="red" stroke-width="2" />
<circle cx="355.25" cy="242.70000000000002" r="4" fill="yellow" stroke="red" stroke-width="2" />
<circle cx="354.1" cy="240.95" r="4" fill="yellow" stroke="red" stroke-width="2" />
<circle cx="339.85" cy="230.79999999999998" r="4" fill="yellow" stroke="red" stroke-width="2" />
<circle cx="338.85" cy="230.6" r="4" fill="yellow" stroke="red" stroke-width="2" />
<circle cx="322" cy="222.75" r="4" fill="yellow" stroke="red" stroke-width="2" />
<circle cx="320.7" cy="222.55" r="4" fill="yellow" stroke="red" stroke-width="2" />
<circle cx="318" cy="222.70000000000002" r="4" fill="yellow" stroke="red" stroke-width="2" />
<circle cx="316" cy="222.35" r="4" fill="yellow" stroke="red" stroke-width="2" />
<circle cx="314.90000000000003" cy="220.05" r="4" fill="yellow" stroke="red" stroke-width="2" />
<circle cx="314" cy="219.2" r="4" fill="yellow" stroke="red" stroke-width="2" />
<circle cx="313.2" cy="218.54999999999998" r="4" fill="yellow" stroke="red" stroke-width="2" />
<circle cx="312.95" cy="219" r="4" fill="yellow" stroke="red" stroke-width="2" />
<circle cx="309.90000000000003" cy="219.29999999999998" r="4" fill="yellow" stroke="red" stroke-width="2" />
<circle cx="307" cy="219.6" r="4" fill="yellow" stroke="red" stroke-width="2" />
<circle cx="282.53" cy="206.99" r="2" fill="green" stroke="black" stroke-width="1" />
<circle cx="291.31449999999995" cy="212.72832499999998" r="2" fill="green" stroke="black" stroke-width="1" />
<circle cx="298.15999999999997" cy="218.04730000000006" r="2" fill="green" stroke="black" stroke-width="1" />
<circle cx="303.0665" cy="222.946925" r="2" fill="green" stroke="black" stroke-width="1" />
<circle cx="306.034" cy="227.42720000000003" r="2" fill="green" stroke="black" stroke-width="1" />
<circle cx="307.0625" cy="231.48812500000003" r="2" fill="green" stroke="black" stroke-width="1" />
<circle cx="306.15199999999993" cy="235.1297" r="2" fill="green" stroke="black" stroke-width="1" />
<circle cx="303.3025" cy="238.35192500000002" r="2" fill="green" stroke="black" stroke-width="1" />
<circle cx="298.514" cy="241.15480000000002" r="2" fill="green" stroke="black" stroke-width="1" />
<circle cx="291.7865" cy="243.5383250000001" r="2" fill="green" stroke="black" stroke-width="1" />
<circle cx="283.12" cy="245.50250000000003" r="2" fill="green" stroke="black" stroke-width="1" />
<circle cx="272.5145" cy="247.047325" r="2" fill="green" stroke="black" stroke-width="1" />
<circle cx="259.96999999999997" cy="248.17280000000002" r="2" fill="green" stroke="black" stroke-width="1" />
<circle cx="245.48649999999998" cy="248.87892499999998" r="2" fill="green" stroke="black" stroke-width="1" />
<circle cx="229.06400000000002" cy="249.1657" r="2" fill="green" stroke="black" stroke-width="1" />
<circle cx="210.7025" cy="249.03312500000004" r="2" fill="green" stroke="black" stroke-width="1" />
<circle cx="190.40199999999996" cy="248.4812" r="2" fill="green" stroke="black" stroke-width="1" />
<circle cx="168.16250000000002" cy="247.509925" r="2" fill="green" stroke="black" stroke-width="1" />
<circle cx="143.98399999999998" cy="246.1193" r="2" fill="green" stroke="black" stroke-width="1" />
<circle cx="117.86650000000003" cy="244.309325" r="2" fill="green" stroke="black" stroke-width="1" />
</svg>
