<svg xmlns="http://www.w3.org/2000/svg">
<rect x="0" y="0" width="640" height="480" fill-opacity="0.20" stroke="black" stroke-width="2" />
<circle cx="83.34" cy="254.75" r="2" fill="green" stroke="black" stroke-width="1" />
<circle cx="113.737525" cy="257.468025" r="2" fill="green" stroke="black" stroke-width="1" />
<circle cx="143.45810000000003" cy="260.6561" r="2" fill="green" stroke="black" stroke-width="1" />
<circle cx="172.501725" cy="264.31422499999996" r="2" fill="green" stroke="black" stroke-width="1" />
<circle cx="200.8684" cy="268.4424" r="2" fill="green" stroke="black" stroke-width="1" />
<circle cx="228.558125" cy="273.040625" r="2" fill="green" stroke="black" stroke-width="1" />
<circle cx="255.57089999999997" cy="278.10889999999995" r="2" fill="green" stroke="black" stroke-width="1" />
<circle cx="281.906725" cy="283.647225" r="2" fill="green" stroke="black" stroke-width="1" />
<circle cx="307.5656" cy="289.6556" r="2" fill="green" stroke="black" stroke-width="1" />
<circle cx="332.54752500000006" cy="296.134025" r="2" fill="green" stroke="black" stroke-width="1" />
<circle cx="356.85249999999996" cy="303.0825" r="2" fill="green" stroke="black" stroke-width="1" />
<circle cx="380.480525" cy="310.501025" r="2" fill="green" stroke="black" stroke-width="1" />
<circle cx="403.4316" cy="318.3896" r="2" fill="green" stroke="black" stroke-width="1" />
<circle cx="425.70572500000003" cy="326.74822500000005" r="2" fill="green" stroke="black" stroke-width="1" />
<circle cx="447.3028999999999" cy="335.5769" r="2" fill="green" stroke="black" stroke-width="1" />
<circle cx="468.2231249999999" cy="344.875625" r="2" fill="green" stroke="black" stroke-width="1" />
<circle cx="488.46639999999996" cy="354.6444" r="2" fill="green" stroke="black" stroke-width="1" />
<circle cx="508.0327249999999" cy="364.88322500000004" r="2" fill="green" stroke="black" stroke-width="1" />
<circle cx="526.9221" cy="375.5921" r="2" fill="green" stroke="black" stroke-width="1" />
<circle cx="545.1345249999999" cy="386.771025" r="2" fill="green" stroke="black" stroke-width="1" />
</svg>
