<svg xmlns="http://www.w3.org/2000/svg">
<rect x="0" y="0" width="640" height="480" fill-opacity="0.20" stroke="black" stroke-width="2" />
<circle cx="266.97" cy="204.219" r="2" fill="green" stroke="black" stroke-width="1" />
<circle cx="284.02442499999995" cy="211.98364750000002" r="2" fill="green" stroke="black" stroke-width="1" />
<circle cx="301.21970000000005" cy="219.37739000000002" r="2" fill="green" stroke="black" stroke-width="1" />
<circle cx="318.555825" cy="226.4002275" r="2" fill="green" stroke="black" stroke-width="1" />
<circle cx="336.0328000000001" cy="233.05216000000001" r="2" fill="green" stroke="black" stroke-width="1" />
<circle cx="353.650625" cy="239.3331875" r="2" fill="green" stroke="black" stroke-width="1" />
<circle cx="371.4093" cy="245.24330999999998" r="2" fill="green" stroke="black" stroke-width="1" />
<circle cx="389.308825" cy="250.78252750000001" r="2" fill="green" stroke="black" stroke-width="1" />
<circle cx="407.34920000000005" cy="255.95083999999997" r="2" fill="green" stroke="black" stroke-width="1" />
<circle cx="425.53042500000004" cy="260.74824750000005" r="2" fill="green" stroke="black" stroke-width="1" />
<circle cx="443.8525000000001" cy="265.17475" r="2" fill="green" stroke="black" stroke-width="1" />
<circle cx="462.31542500000006" cy="269.23034750000005" r="2" fill="green" stroke="black" stroke-width="1" />
<circle cx="480.91920000000005" cy="272.91504000000003" r="2" fill="green" stroke="black" stroke-width="1" />
<circle cx="499.663825" cy="276.2288275" r="2" fill="green" stroke="black" stroke-width="1" />
<circle cx="518.5493" cy="279.17170999999996" r="2" fill="green" stroke="black" stroke-width="1" />
<circle cx="537.575625" cy="281.7436875000001" r="2" fill="green" stroke="black" stroke-width="1" />
<circle cx="556.7428" cy="283.94476000000003" r="2" fill="green" stroke="black" stroke-width="1" />
<circle cx="576.050825" cy="285.7749275" r="2" fill="green" stroke="black" stroke-width="1" />
<circle cx="595.4997000000001" cy="287.23419" r="2" fill="green" stroke="black" stroke-width="1" />
<circle cx="615.0894250000001" cy="288.32254750000004" r="2" fill="green" stroke="black" stroke-width="1" />
</svg>
