<svg xmlns="http://www.w3.org/2000/svg">
<rect x="0" y="0" width="640" height="480" fill-opacity="0.20" stroke="black" stroke-width="2" />
<circle cx="619.78" cy="375.32" r="2" fill="green" stroke="black" stroke-width="1" />
<circle cx="611.16825" cy="366.916575" r="2" fill="green" stroke="black" stroke-width="1" />
<circle cx="603.5350000000001" cy="358.9563" r="2" fill="green" stroke="black" stroke-width="1" />
<circle cx="596.8802499999999" cy="351.439175" r="2" fill="green" stroke="black" stroke-width="1" />
<circle cx="591.2040000000001" cy="344.3652000000001" r="2" fill="green" stroke="black" stroke-width="1" />
<circle cx="586.5062499999999" cy="337.734375" r="2" fill="green" stroke="black" stroke-width="1" />
<circle cx="582.7869999999999" cy="331.5467" r="2" fill="green" stroke="black" stroke-width="1" />
<circle cx="580.04625" cy="325.80217500000003" r="2" fill="green" stroke="black" stroke-width="1" />
<circle cx="578.284" cy="320.50079999999997" r="2" fill="green" stroke="black" stroke-width="1" />
<circle cx="577.50025" cy="315.642575" r="2" fill="green" stroke="black" stroke-width="1" />
<circle cx="577.6949999999999" cy="311.2275" r="2" fill="green" stroke="black" stroke-width="1" />
<circle cx="578.86825" cy="307.25557499999996" r="2" fill="green" stroke="black" stroke-width="1" />
<circle cx="581.02" cy="303.72679999999997" r="2" fill="green" stroke="black" stroke-width="1" />
<circle cx="584.1502499999999" cy="300.641175" r="2" fill="green" stroke="black" stroke-width="1" />
<circle cx="588.259" cy="297.9987" r="2" fill="green" stroke="black" stroke-width="1" />
<circle cx="593.34625" cy="295.799375" r="2" fill="green" stroke="black" stroke-width="1" />
<circle cx="599.412" cy="294.0432" r="2" fill="green" stroke="black" stroke-width="1" />
<circle cx="606.45625" cy="292.73017500000003" r="2" fill="green" stroke="black" stroke-width="1" />
<circle cx="614.479" cy="291.8603" r="2" fill="green" stroke="black" stroke-width="1" />
<circle cx="623.48025" cy="291.433575" r="2" fill="green" stroke="black" stroke-width="1" />
</svg>
