<svg xmlns="http://www.w3.org/2000/svg">
<rect x="0" y="0" width="640" height="480" fill-opacity="0.20" stroke="black" stroke-width="2" />
<circle cx="282.53" cy="206.99" r="2" fill="green" stroke="black" stroke-width="1" />
<circle cx="291.31449999999995" cy="212.72832499999998" r="2" fill="green" stroke="black" stroke-width="1" />
<circle cx="298.15999999999997" cy="218.04730000000006" r="2" fill="green" stroke="black" stroke-width="1" />
<circle cx="303.0665" cy="222.946925" r="2" fill="green" stroke="black" stroke-width="1" />
<circle cx="306.034" cy="227.42720000000003" r="2" fill="green" stroke="black" stroke-width="1" />
<circle cx="307.0625" cy="231.48812500000003" r="2" fill="green" stroke="black" stroke-width="1" />
<circle cx="306.15199999999993" cy="235.1297" r="2" fill="green" stroke="black" stroke-width="1" />
<circle cx="303.3025" cy="238.35192500000002" r="2" fill="green" stroke="black" stroke-width="1" />
<circle cx="298.514" cy="241.15480000000002" r="2" fill="green" stroke="black" stroke-width="1" />
<circle cx="291.7865" cy="243.5383250000001" r="2" fill="green" stroke="black" stroke-width="1" />
<circle cx="283.12" cy="245.50250000000003" r="2" fill="green" stroke="black" stroke-width="1" />
<circle cx="272.5145" cy="247.047325" r="2" fill="green" stroke="black" stroke-width="1" />
<circle cx="259.96999999999997" cy="248.17280000000002" r="2" fill="green" stroke="black" stroke-width="1" />
<circle cx="245.48649999999998" cy="248.87892499999998" r="2" fill="green" stroke="black" stroke-width="1" />
<circle cx="229.06400000000002" cy="249.1657" r="2" fill="green" stroke="black" stroke-width="1" />
<circle cx="210.7025" cy="249.03312500000004" r="2" fill="green" stroke="black" stroke-width="1" />
<circle cx="190.40199999999996" cy="248.4812" r="2" fill="green" stroke="black" stroke-width="1" />
<circle cx="168.16250000000002" cy="247.509925" r="2" fill="green" stroke="black" stroke-width="1" />
<circle cx="143.98399999999998" cy="246.1193" r="2" fill="green" stroke="black" stroke-width="1" />
<circle cx="117.86650000000003" cy="244.309325" r="2" fill="green" stroke="black" stroke-width="1" />
</svg>
